<?xml version="1.0" standalone="no"?>
<!DOCTYPE svg PUBLIC "-//W3C//DTD SVG 1.1//EN" "http://www.w3.org/Graphics/SVG/1.1/DTD/svg11.dtd" >
<svg xmlns="http://www.w3.org/2000/svg" xmlns:xlink="http://www.w3.org/1999/xlink" version="1.1">
<metadata>
Created by FontForge 20170731 at Fri Sep 12 15:59:27 2008
 By Aleksey,,,
Copyright (C) 2001, 2008 Hoefler &#38; Frere-Jones. http://www.typography.com
</metadata>
<defs>
<font id="GothamNarrow-Black" horiz-adv-x="500" >
  <font-face 
    font-family="Gotham Narrow Black"
    font-weight="450"
    font-stretch="condensed"
    units-per-em="1000"
    panose-1="0 0 0 0 0 0 0 0 0 0"
    ascent="800"
    descent="-200"
    x-height="541"
    cap-height="700"
    bbox="-53 -285 1121 1012"
    underline-thickness="50"
    underline-position="-300"
    unicode-range="U+0020-FB04"
  />
<missing-glyph 
d="M0 -200v1000h500v-1000h-500zM71 750l179 -390l179 390h-358zM50 -76l172 376l-172 376v-752zM450 676l-172 -376l172 -376v752zM250 240l-179 -390h358z" />
    <glyph glyph-name="f_f" unicode="ff" horiz-adv-x="711" 
d="M71 0v400h-53v139h53v16q0 87 43 131q44 43 131 43q61 0 104 -12v-127q-30 7 -55 7q-50 0 -50 -48v-12h105v-137h-102v-400h-176zM427 0v400h-53v137h53v18q0 88 43 131q44 43 131 43q61 0 104 -12v-127q-30 7 -55 7q-50 0 -50 -48v-12h105v-137h-102v-400h-176z" />
    <glyph glyph-name="fi" unicode="fi" horiz-adv-x="625" 
d="M71 0v400h-53v139h53v16q0 87 43 131q44 43 131 43q61 0 104 -12v-127q-30 7 -55 7q-50 0 -50 -48v-12h105v-137h-102v-400h-176zM403 0v541h176v-541h-176zM400 587v137h182v-137h-182z" />
    <glyph glyph-name="fl" unicode="fl" horiz-adv-x="625" 
d="M71 0v400h-53v139h53v16q0 87 43 131q44 43 131 43q61 0 104 -12v-127q-30 7 -55 7q-50 0 -50 -48v-12h105v-137h-102v-400h-176zM403 0v724h176v-724h-176z" />
    <glyph glyph-name="f_f_i" unicode="ffi" horiz-adv-x="981" 
d="M71 0v400h-53v139h53v16q0 87 43 131q44 43 131 43q61 0 104 -12v-127q-30 7 -55 7q-50 0 -50 -48v-12h105v-137h-102v-400h-176zM427 0v400h-53v137h53v18q0 88 43 131q44 43 131 43q61 0 104 -12v-127q-30 7 -55 7q-50 0 -50 -48v-12h105v-137h-102v-400h-176zM758 0
v541h176v-541h-176zM755 587v137h182v-137h-182z" />
    <glyph glyph-name="f_f_l" unicode="ffl" horiz-adv-x="981" 
d="M71 0v400h-53v139h53v16q0 87 43 131q44 43 131 43q61 0 104 -12v-127q-30 7 -55 7q-50 0 -50 -48v-12h105v-137h-102v-400h-176zM427 0v400h-53v137h53v18q0 88 43 131q44 43 131 43q61 0 104 -12v-127q-30 7 -55 7q-50 0 -50 -48v-12h105v-137h-102v-400h-176zM758 0
v724h176v-724h-176z" />
    <glyph glyph-name=".notdef" 
d="M0 -200v1000h500v-1000h-500zM71 750l179 -390l179 390h-358zM50 -76l172 376l-172 376v-752zM450 676l-172 -376l172 -376v752zM250 240l-179 -390h358z" />
    <glyph glyph-name=".null" horiz-adv-x="0" 
 />
    <glyph glyph-name="nonmarkingreturn" horiz-adv-x="333" 
 />
    <glyph glyph-name="space" unicode=" " horiz-adv-x="238" 
 />
    <glyph glyph-name="exclam" unicode="!" horiz-adv-x="295" 
d="M102 227l-57 410v63h205v-63l-57 -410h-91zM54 0v167h187v-167h-187z" />
    <glyph glyph-name="quotedbl" unicode="&#x22;" horiz-adv-x="481" 
d="M264 354l15 346h184v-6l-113 -340h-86zM34 354l15 346h184v-6l-113 -340h-86z" />
    <glyph glyph-name="numbersign" unicode="#" horiz-adv-x="614" 
d="M561 291v-152h-103l-21 -139h-129l20 139h-107l-20 -139h-130l21 139h-68v152h91l18 122h-80v152h103l20 135h129l-20 -135h107l20 135h130l-20 -135h68v-152h-91l-18 -122h80zM259 418l-20 -132h115l20 132h-115z" />
    <glyph glyph-name="dollar" unicode="$" horiz-adv-x="575" 
d="M538 622l-81 -129q-84 64 -165 64h-6q-36 0 -54 -14t-18 -36v-1q0 -25 23.5 -40.5t91.5 -37.5q115 -38 167.5 -87.5t52.5 -132.5v-2q0 -83 -54.5 -137.5t-145.5 -67.5v-102h-104v102q-134 15 -231 95l85 128q103 -79 200 -80h5q78 0 78 51v2q0 23 -23.5 39t-86.5 35
q-119 40 -172.5 88.5t-53.5 132.5v3q0 83 53.5 137.5t146.5 66.5v64h104v-65q105 -13 188 -76z" />
    <glyph glyph-name="percent" unicode="%" horiz-adv-x="798" 
d="M190 328q-71 0 -115.5 52.5t-44.5 133.5v8q0 82 44.5 134.5t116.5 52.5t116 -52.5t44 -134.5v-7q0 -82 -44.5 -134.5t-116.5 -52.5zM190 606q-22 0 -35 -22.5t-13 -61.5v-7q0 -39 13.5 -62t35.5 -23t35 22.5t13 62.5v6q0 40 -13 62.5t-36 22.5zM359 371l218 329h118
l-257 -374l-217 -326h-118zM607 -9q-71 0 -115.5 52.5t-44.5 134.5v7q0 82 44.5 134.5t116.5 52.5q71 0 115.5 -52t44.5 -134v-8q0 -82 -45 -134.5t-116 -52.5zM608 94q22 0 35 22.5t13 61.5v7q0 39 -13.5 62t-35.5 23q-23 0 -36 -22.5t-13 -62.5v-6q0 -39 13.5 -62
t36.5 -23z" />
    <glyph glyph-name="ampersand" unicode="&#x26;" horiz-adv-x="626" 
d="M490 -14l-59 66q-82 -63 -183 -63t-165.5 53.5t-64.5 145.5v3q0 127 130 196q-50 74 -50 142v3q0 76 56 128.5t146 52.5q87 0 139.5 -49t52.5 -125v-3q0 -116 -125 -183l71 -85q18 31 50 102l122 -51q-33 -91 -78 -158l81 -91zM285 441q63 35 63 89v1q0 25 -13 40t-35 15
t-36 -16.5t-14 -42.5v-1q0 -38 35 -85zM271 126q37 0 72 27l-105 127q-43 -32 -43 -79v-2q0 -33 21 -53t55 -20z" />
    <glyph glyph-name="quotesingle" unicode="'" horiz-adv-x="253" 
d="M34 354l15 346h187v-6l-114 -340h-88z" />
    <glyph glyph-name="parenleft" unicode="(" horiz-adv-x="397" 
d="M309 -140q-270 129 -270 423v8q0 294 270 423l67 -111q-89 -58 -127.5 -134.5t-38.5 -181.5v-1q0 -105 38.5 -181.5t127.5 -133.5z" />
    <glyph glyph-name="parenright" unicode=")" horiz-adv-x="397" 
d="M88 -140l-67 111q89 57 127.5 133.5t38.5 181.5v1q0 105 -38.5 181.5t-127.5 134.5l67 111q270 -129 270 -423v-8q0 -294 -270 -423z" />
    <glyph glyph-name="asterisk" unicode="*" horiz-adv-x="391" 
d="M144 355l25 127l-94 -85l-52 90l120 41l-120 41l52 91l94 -85l-25 127h103l-25 -127l94 85l53 -91l-121 -41l121 -41l-53 -90l-94 85l25 -127h-103z" />
    <glyph glyph-name="plus" unicode="+" horiz-adv-x="568" 
d="M204 113v161h-158v156h158v160h161v-160h157v-156h-157v-161h-161z" />
    <glyph glyph-name="comma" unicode="," horiz-adv-x="263" 
d="M33 -160l-15 69q50 7 74.5 31t22.5 61h-76v185h185v-151q0 -182 -191 -195z" />
    <glyph glyph-name="hyphen" unicode="-" horiz-adv-x="382" 
d="M36 233v159h310v-159h-310z" />
    <glyph glyph-name="period" unicode="." horiz-adv-x="263" 
d="M39 0v184h185v-184h-185z" />
    <glyph glyph-name="slash" unicode="/" horiz-adv-x="467" 
d="M-31 -119l377 908h140l-377 -908h-140z" />
    <glyph glyph-name="zero" unicode="0" horiz-adv-x="640" 
d="M319 -13q-131 0 -208 98t-77 257v15q0 158 78 257t209 99t208 -98t77 -257v-15q0 -158 -78 -257t-209 -99zM321 148q48 0 76 50t28 144v14q0 94 -29 145t-77 51t-76 -50t-28 -144v-14q0 -94 28.5 -145t77.5 -51z" />
    <glyph glyph-name="one" unicode="1" horiz-adv-x="375" 
d="M139 0v530l-104 -26l-25 149l177 51h130v-704h-178z" />
    <glyph glyph-name="two" unicode="2" horiz-adv-x="547" 
d="M30 0v141l224 214q44 44 61.5 71.5t17.5 56.5q0 30 -19.5 48.5t-51.5 18.5q-31 0 -59.5 -19t-68.5 -61l-107 115q55 65 115 96t139 31q103 0 167.5 -57.5t64.5 -152.5v-2q0 -67 -31 -117t-105 -119l-117 -110h255v-154h-485z" />
    <glyph glyph-name="three" unicode="3" horiz-adv-x="542" 
d="M262 -13q-152 0 -250 96l96 126q65 -63 142 -63q40 0 63.5 20t23.5 54v2q0 37 -32 57.5t-94 20.5h-52l-19 101l147 146h-234v153h449v-137l-156 -149q167 -40 167 -195v-2q0 -105 -70 -167.5t-181 -62.5z" />
    <glyph glyph-name="four" unicode="4" horiz-adv-x="607" 
d="M333 0v131h-298l-22 127l312 446h180v-433h79v-140h-79v-131h-172zM192 270h142v207z" />
    <glyph glyph-name="five" unicode="5" horiz-adv-x="550" 
d="M256 -13q-136 0 -240 89l89 132q78 -62 145 -62q44 0 69 23t25 62v2q0 38 -26 60.5t-68 22.5q-46 0 -93 -28l-101 57l20 355h415v-155h-275l-6 -107q44 17 91 17q93 0 156 -55.5t63 -162.5v-3q0 -115 -73.5 -181t-190.5 -66z" />
    <glyph glyph-name="six" unicode="6" horiz-adv-x="586" 
d="M301 -13q-114 0 -183 69q-84 84 -84 272v4q0 181 77.5 281t219.5 100q106 0 197 -62l-75 -135q-59 44 -118 44q-60 0 -89.5 -43.5t-33.5 -104.5q61 45 132 45q87 0 147.5 -56.5t60.5 -160.5v-3q0 -113 -72 -181.5t-179 -68.5zM296 130q39 0 61 26t22 70v2q0 43 -23 69.5
t-62 26.5q-38 0 -60 -26t-22 -69v-2q0 -44 22.5 -70.5t61.5 -26.5z" />
    <glyph glyph-name="seven" unicode="7" horiz-adv-x="536" 
d="M58 0l258 541h-280v159h475v-131l-260 -569h-193z" />
    <glyph glyph-name="eight" unicode="8" horiz-adv-x="565" 
d="M282 -12q-115 0 -186.5 56t-71.5 147v4q0 116 108 168q-89 55 -89 153v3q0 84 67 138.5t173 54.5t172.5 -54.5t66.5 -138.5v-3q0 -98 -89 -153q108 -55 108 -167v-4q0 -92 -72 -148t-187 -56zM283 417q33 0 53.5 22t20.5 59v1q0 35 -20.5 56.5t-53.5 21.5
q-34 0 -54.5 -21.5t-20.5 -56.5v-1q0 -37 20.5 -59t54.5 -22zM283 125q39 0 62.5 23t23.5 61v2q0 38 -24 61t-62 23q-39 0 -62.5 -22.5t-23.5 -61.5v-2q0 -38 23 -61t63 -23z" />
    <glyph glyph-name="nine" unicode="9" horiz-adv-x="585" 
d="M251 140q60 0 89 41t33 101q-56 -46 -130 -46q-90 0 -149.5 57.5t-59.5 162.5v4q0 115 71 184t179 69q115 0 185 -70q83 -83 83 -272v-3q0 -183 -78.5 -282t-218.5 -99q-111 0 -208 68l75 133q65 -48 129 -48zM291 369q39 0 61 27t22 71v2q0 46 -22.5 73.5t-62.5 27.5
q-39 0 -60.5 -27t-21.5 -73v-2q0 -45 22.5 -72t61.5 -27z" />
    <glyph glyph-name="colon" unicode=":" horiz-adv-x="271" 
d="M43 357v184h185v-184h-185zM43 0v184h185v-184h-185z" />
    <glyph glyph-name="semicolon" unicode=";" horiz-adv-x="271" 
d="M43 357v184h185v-184h-185zM37 -161l-15 68q50 7 74.5 31.5t22.5 61.5h-76v184h185v-150q0 -183 -191 -195z" />
    <glyph glyph-name="less" unicode="&#x3c;" horiz-adv-x="568" 
d="M502 76l-450 195v161l450 196v-170l-287 -106l287 -105v-171z" />
    <glyph glyph-name="equal" unicode="=" horiz-adv-x="568" 
d="M51 399v156h466v-156h-466zM51 149v156h466v-156h-466z" />
    <glyph glyph-name="greater" unicode="&#x3e;" horiz-adv-x="568" 
d="M66 76v170l288 105l-288 105v172l450 -196v-161z" />
    <glyph glyph-name="question" unicode="?" horiz-adv-x="482" 
d="M163 227l-22 171l6 7q140 17 140 85v2q0 26 -18.5 41t-51.5 15q-61 0 -129 -58l-84 130q99 89 227 89q105 0 168.5 -55t63.5 -147v-1q0 -152 -174 -201l-13 -78h-113zM124 0v167h187v-167h-187z" />
    <glyph glyph-name="at" unicode="@" horiz-adv-x="859" 
d="M430 -154q-170 0 -281 115.5t-111 294.5q0 122 51.5 226.5t146.5 167.5t211 63q159 0 266.5 -108t107.5 -255q0 -133 -58 -213t-143 -80q-101 0 -136 79q-56 -76 -133 -76q-67 0 -110.5 48t-43.5 131q0 113 60 197t141 84q76 0 115 -72l11 60l140 -22l-47 -268
q-4 -21 -4 -48q0 -24 14 -38t38 -14q47 0 80 65t33 168q0 132 -94 226.5t-239 94.5q-157 0 -260.5 -123t-103.5 -295q-1 -162 97 -265t254 -103q113 0 214 59l20 -33q-109 -66 -236 -66zM400 179q26 0 48 22q18 18 29.5 56.5t11.5 71.5q0 32 -16 50t-41 18q-27 0 -49 -22
q-18 -19 -29.5 -56.5t-11.5 -70.5q0 -34 16 -51.5t42 -17.5z" />
    <glyph glyph-name="A" unicode="A" horiz-adv-x="682" 
d="M4 0l246 704h182l247 -704h-189l-41 126h-220l-40 -126h-185zM274 270h130l-65 205z" />
    <glyph glyph-name="B" unicode="B" horiz-adv-x="624" 
d="M52 0v700h290q129 0 190 -62q46 -44 46 -116v-4q0 -107 -104 -154q128 -48 128 -166v-4q0 -91 -68 -142.5t-191 -51.5h-291zM400 484v1q0 65 -84 65h-89v-131h86q87 0 87 65zM422 219q0 31 -23.5 49.5t-66.5 18.5h-105v-137h106q42 0 65.5 18t23.5 50v1z" />
    <glyph glyph-name="C" unicode="C" horiz-adv-x="617" 
d="M350 -12q-137 0 -227.5 97.5t-90.5 257.5v12q0 160 92.5 258.5t232.5 98.5q148 0 242 -110l-116 -123q-55 66 -123 66q-63 0 -103 -52t-40 -140v-4q0 -91 40 -142.5t103 -51.5q41 0 70 18t58 51l114 -116q-98 -120 -252 -120z" />
    <glyph glyph-name="D" unicode="D" horiz-adv-x="667" 
d="M52 0v700h230q167 0 260 -92.5t93 -249.5v-12q0 -157 -94 -251.5t-262 -94.5h-227zM284 539h-52v-378h52q78 0 122.5 46.5t44.5 137.5v9q0 92 -44.5 138.5t-122.5 46.5z" />
    <glyph glyph-name="E" unicode="E" horiz-adv-x="570" 
d="M52 0v700h482v-158h-304v-115h274v-149h-274v-120h308v-158h-486z" />
    <glyph glyph-name="F" unicode="F" horiz-adv-x="551" 
d="M52 0v700h476v-162h-296v-124h266v-155h-266v-259h-180z" />
    <glyph glyph-name="G" unicode="G" horiz-adv-x="664" 
d="M368 -12q-146 0 -241 96.5t-95 257.5v14q0 156 95.5 256t241.5 100q136 0 241 -85l-100 -137q-65 58 -137 58q-68 0 -112.5 -54t-44.5 -140v-10q0 -93 44.5 -146t114.5 -53q49 0 81 21v104h-111v139h280v-334q-117 -87 -257 -87z" />
    <glyph glyph-name="H" unicode="H" horiz-adv-x="663" 
d="M52 0v700h180v-266h199v266h181v-700h-181v270h-199v-270h-180z" />
    <glyph glyph-name="I" unicode="I" horiz-adv-x="291" 
d="M55 0v700h180v-700h-180z" />
    <glyph glyph-name="J" unicode="J" horiz-adv-x="486" 
d="M207 -11q-129 0 -205 92l101 122q43 -51 89 -51q32 0 51 22.5t19 65.5v460h179v-466q0 -119 -64 -182q-61 -63 -170 -63z" />
    <glyph glyph-name="K" unicode="K" horiz-adv-x="636" 
d="M52 0v700h180v-277l193 277h207l-217 -298l224 -402h-210l-141 255l-56 -73v-182h-180z" />
    <glyph glyph-name="L" unicode="L" horiz-adv-x="526" 
d="M52 0v700h180v-538h275v-162h-455z" />
    <glyph glyph-name="M" unicode="M" horiz-adv-x="758" 
d="M52 0v700h185l142 -258l141 258h186v-700h-178v394l-149 -260h-3l-149 258v-392h-175z" />
    <glyph glyph-name="N" unicode="N" horiz-adv-x="682" 
d="M52 0v700h169l233 -352v352h177v-700h-160l-242 367v-367h-177z" />
    <glyph glyph-name="O" unicode="O" horiz-adv-x="713" 
d="M356 -13q-142 0 -233 99t-91 256v15q0 156 92 256t233 100q142 0 233 -99t91 -256v-15q0 -156 -92 -256t-233 -100zM357 150q64 0 102 52t38 142v11q0 90 -39 142.5t-102 52.5t-101.5 -52t-38.5 -142v-11q0 -90 39 -142.5t102 -52.5z" />
    <glyph glyph-name="P" unicode="P" horiz-adv-x="591" 
d="M52 0v700h250q126 0 199.5 -63.5t73.5 -179.5v-4q0 -121 -77 -184.5t-198 -65.5h-69v-203h-179zM231 350h63q47 0 74 26t27 70v3q0 48 -26.5 72.5t-75.5 24.5h-62v-196z" />
    <glyph glyph-name="Q" unicode="Q" horiz-adv-x="715" 
d="M695 77l-97 -96l-61 61q-80 -55 -181 -55q-141 0 -232.5 99.5t-91.5 255.5v15q0 156 92 256t233 100q142 0 233 -99t91 -256v-15q0 -112 -53 -202zM359 146q32 0 57 13l-84 79l97 96l62 -60q7 35 7 68v12q0 90 -39 143t-103 53q-63 0 -101.5 -52.5t-38.5 -142.5v-12
q0 -92 39 -144.5t104 -52.5z" />
    <glyph glyph-name="R" unicode="R" horiz-adv-x="627" 
d="M52 0v700h275q141 0 210 -71q61 -61 61 -164v-5q0 -144 -125 -206l144 -254h-203l-119 217h-64v-217h-179zM231 360h89q46 0 71.5 24.5t25.5 66.5v2q0 44 -26 67t-72 23h-88v-183z" />
    <glyph glyph-name="S" unicode="S" horiz-adv-x="566" 
d="M286 -10q-166 0 -285 103l96 131q96 -79 190 -79q35 0 54 14t19 37v1q0 21 -21.5 37t-81.5 37q-114 39 -169.5 85.5t-55.5 134.5v3q0 96 68 156t182 60q145 0 250 -85l-91 -134q-83 64 -163 64q-30 0 -47 -13t-17 -33v-1q0 -23 22 -39t89 -41q109 -35 162.5 -83.5
t53.5 -132.5v-2q0 -101 -70.5 -160.5t-184.5 -59.5z" />
    <glyph glyph-name="T" unicode="T" horiz-adv-x="566" 
d="M193 0v538h-173v162h526v-162h-173v-538h-180z" />
    <glyph glyph-name="U" unicode="U" horiz-adv-x="659" 
d="M328 -12q-133 0 -208 72t-75 217v423h181v-425q0 -61 27.5 -92.5t75.5 -31.5q49 0 76 30t27 91v428h182v-420q0 -147 -76 -219.5t-210 -72.5z" />
    <glyph glyph-name="V" unicode="V" horiz-adv-x="653" 
d="M240 -4l-236 704h196l129 -436l128 436h192l-236 -704h-173z" />
    <glyph glyph-name="W" unicode="W" horiz-adv-x="967" 
d="M205 -4l-195 704h190l98 -405l109 407h155l110 -407l98 405h186l-195 -704h-165l-113 387l-113 -387h-165z" />
    <glyph glyph-name="X" unicode="X" horiz-adv-x="632" 
d="M419 700h197l-196 -342l204 -358h-202l-108 217l-109 -217h-197l203 356l-194 344h201l99 -203z" />
    <glyph glyph-name="Y" unicode="Y" horiz-adv-x="626" 
d="M223 0v262l-225 438h199l117 -253l118 253h196l-225 -436v-264h-180z" />
    <glyph glyph-name="Z" unicode="Z" horiz-adv-x="593" 
d="M34 0v135l291 408h-282v157h518v-135l-292 -408h292v-157h-527z" />
    <glyph glyph-name="bracketleft" unicode="[" horiz-adv-x="401" 
d="M59 -130v830h305v-121h-149v-588h149v-121h-305z" />
    <glyph glyph-name="backslash" unicode="\" horiz-adv-x="467" 
d="M359 -119l-378 908h140l377 -908h-139z" />
    <glyph glyph-name="bracketright" unicode="]" horiz-adv-x="401" 
d="M37 -130v121h149v588h-149v121h305v-830h-305z" />
    <glyph glyph-name="asciicircum" unicode="^" 
d="M64 493l123 205h125l124 -205h-120l-67 107l-67 -107h-118z" />
    <glyph glyph-name="underscore" unicode="_" horiz-adv-x="563" 
d="M-2 -157v114h567v-114h-567z" />
    <glyph glyph-name="grave" unicode="`" 
d="M242 583l-136 117l159 52l95 -169h-118z" />
    <glyph glyph-name="a" unicode="a" horiz-adv-x="529" 
d="M178 -11q-69 0 -113.5 43.5t-44.5 120.5v7q0 84 50 127.5t135 43.5q63 0 112 -21v13q0 84 -94 84q-55 0 -128 -30l-40 130q93 42 197 42q123 0 183 -60q55 -55 55 -165v-324h-174v55q-52 -66 -138 -66zM243 104q33 0 54 21.5t21 57.5v40q-28 13 -61 13t-51.5 -18
t-18.5 -49v-4q0 -28 15.5 -44t40.5 -17z" />
    <glyph glyph-name="b" unicode="b" horiz-adv-x="592" 
d="M363 -11q-85 0 -144 76v-65h-176v724h176v-252q28 38 61.5 59t82.5 21q86 0 144 -70.5t58 -200.5v-18q0 -132 -57.5 -203t-144.5 -71zM304 139q39 0 63.5 34.5t24.5 90.5v13q0 56 -24.5 90.5t-63.5 34.5t-63.5 -34.5t-24.5 -90.5v-13q0 -56 24.5 -90.5t63.5 -34.5z" />
    <glyph glyph-name="c" unicode="c" horiz-adv-x="487" 
d="M277 -13q-110 0 -180.5 77.5t-70.5 197.5v11q0 121 72.5 200t185.5 79q120 0 192 -91l-103 -109q-36 46 -83 46q-41 0 -66.5 -35t-25.5 -90v-3q0 -59 25.5 -94t68.5 -35q44 0 85 46l100 -103q-76 -97 -200 -97z" />
    <glyph glyph-name="d" unicode="d" horiz-adv-x="592" 
d="M230 -11q-87 0 -145 70.5t-58 200.5v18q0 132 58 203t144 71q84 0 145 -76v248h175v-724h-175v69q-61 -80 -144 -80zM289 139q38 0 62.5 34.5t24.5 90.5v13q0 56 -24.5 90.5t-62.5 34.5q-39 0 -63.5 -34.5t-24.5 -90.5v-13q0 -56 24.5 -90.5t63.5 -34.5z" />
    <glyph glyph-name="e" unicode="e" horiz-adv-x="535" 
d="M287 -12q-116 0 -189 75t-73 200v11q0 122 69 200.5t176 78.5q116 0 178 -80t62 -209q0 -36 -1 -50h-314q20 -88 104 -88q57 0 111 51l84 -100q-84 -89 -207 -89zM193 313h153q-4 50 -24 77t-52 27q-66 0 -77 -104z" />
    <glyph glyph-name="f" unicode="f" horiz-adv-x="356" 
d="M71 0v400h-53v139h53v16q0 87 43 131q44 43 131 43q61 0 104 -12v-127q-30 7 -55 7q-50 0 -50 -48v-12h105v-137h-102v-400h-176z" />
    <glyph glyph-name="g" unicode="g" horiz-adv-x="592" 
d="M272 -153q-124 0 -230 49l49 126q76 -42 163 -42q122 0 122 116v27q-60 -78 -146 -78q-88 0 -145.5 64.5t-57.5 183.5v8q0 120 57 185.5t142 65.5q86 0 148 -75v64h175v-431q0 -132 -63 -195q-70 -68 -214 -68zM288 186q40 0 64 30t24 80v3q0 50 -24 80.5t-64 30.5
t-63.5 -30.5t-23.5 -80.5v-3q0 -50 24 -80t63 -30z" />
    <glyph glyph-name="h" unicode="h" horiz-adv-x="561" 
d="M43 0v724h176v-254q57 82 143 82q75 0 117.5 -48t42.5 -131v-373h-176v319q0 37 -17 57t-45 20q-29 0 -47 -20t-18 -57v-319h-176z" />
    <glyph glyph-name="i" unicode="i" horiz-adv-x="269" 
d="M44 587v137h181v-137h-181zM47 0v541h175v-541h-175z" />
    <glyph glyph-name="j" unicode="j" horiz-adv-x="271" 
d="M44 587v137h182v-137h-182zM46 -154q-28 0 -72 6v119q14 -2 22 -2q51 0 51 57v515h176v-521q0 -92 -44.5 -133t-132.5 -41z" />
    <glyph glyph-name="k" unicode="k" horiz-adv-x="535" 
d="M43 0v724h176v-364l121 181h194l-155 -216l158 -325h-193l-86 187l-39 -53v-134h-176z" />
    <glyph glyph-name="l" unicode="l" horiz-adv-x="269" 
d="M47 0v724h175v-724h-175z" />
    <glyph glyph-name="m" unicode="m" horiz-adv-x="856" 
d="M43 0v541h175v-71q58 82 143 82q96 0 137 -81q64 81 156 81q76 0 119 -47t43 -131v-374h-176v320q0 36 -16 56t-44 20t-45.5 -20t-17.5 -56v-320h-175v320q0 36 -16.5 56t-44.5 20t-45.5 -20t-17.5 -56v-320h-175z" />
    <glyph glyph-name="n" unicode="n" horiz-adv-x="561" 
d="M43 0v541h176v-72q58 83 143 83q75 0 117.5 -48t42.5 -131v-373h-176v319q0 37 -17 57t-45 20q-29 0 -47 -20t-18 -57v-319h-176z" />
    <glyph glyph-name="o" unicode="o" horiz-adv-x="576" 
d="M287 -13q-114 0 -187.5 77.5t-73.5 197.5v15q0 120 74.5 198t188.5 78t188 -77.5t74 -197.5v-15q0 -120 -74.5 -198t-189.5 -78zM289 138q41 0 65.5 35t24.5 92v9q0 57 -25 92.5t-66 35.5q-42 0 -66 -35t-24 -92v-9q0 -57 25 -92.5t66 -35.5z" />
    <glyph glyph-name="p" unicode="p" horiz-adv-x="592" 
d="M43 -151v692h176v-69q28 38 61.5 59t82.5 21q86 0 144 -70.5t58 -200.5v-18q0 -132 -57.5 -203t-144.5 -71q-85 0 -144 76v-216h-176zM304 139q39 0 63.5 34.5t24.5 90.5v13q0 56 -24.5 90.5t-63.5 34.5t-63.5 -34.5t-24.5 -90.5v-13q0 -56 24.5 -90.5t63.5 -34.5z" />
    <glyph glyph-name="q" unicode="q" horiz-adv-x="592" 
d="M374 -151v220q-61 -80 -144 -80q-87 0 -145 70.5t-58 200.5v18q0 132 58 203t144 71q84 0 145 -76v65h175v-692h-175zM289 139q38 0 62.5 34.5t24.5 90.5v13q0 56 -24.5 90.5t-62.5 34.5q-39 0 -63.5 -34.5t-24.5 -90.5v-13q0 -56 24.5 -90.5t63.5 -34.5z" />
    <glyph glyph-name="r" unicode="r" horiz-adv-x="377" 
d="M43 0v541h176v-98q43 111 144 106v-192h-12q-132 0 -132 -159v-198h-176z" />
    <glyph glyph-name="s" unicode="s" horiz-adv-x="453" 
d="M229 -11q-126 0 -224 73l66 117q85 -59 157 -59q44 0 44 30v2q0 15 -16.5 24.5t-62.5 27.5q-83 31 -124 67.5t-41 103.5v2q0 81 55.5 127.5t145.5 46.5q109 0 198 -58l-64 -119q-73 46 -133 46q-41 0 -41 -28v-2q0 -14 16.5 -24t63.5 -29q83 -31 123.5 -68t40.5 -101v-2
q0 -83 -55.5 -130t-148.5 -47z" />
    <glyph glyph-name="t" unicode="t" horiz-adv-x="377" 
d="M232 -10q-161 0 -161 157v253h-54v141h54v135h175v-135h106v-141h-106v-213q0 -45 45 -45q29 0 60 14v-138q-51 -28 -119 -28z" />
    <glyph glyph-name="u" unicode="u" horiz-adv-x="561" 
d="M199 -11q-75 0 -117.5 48t-42.5 131v373h176v-319q0 -37 17 -57t45 -20q29 0 47 20t18 57v319h176v-541h-176v71q-57 -82 -143 -82z" />
    <glyph glyph-name="v" unicode="v" horiz-adv-x="549" 
d="M192 -4l-185 545h183l86 -317l86 317h180l-185 -545h-165z" />
    <glyph glyph-name="w" unicode="w" horiz-adv-x="763" 
d="M153 -4l-143 545h172l60 -274l68 276h143l69 -277l61 275h171l-145 -545h-154l-74 274l-75 -274h-153z" />
    <glyph glyph-name="x" unicode="x" horiz-adv-x="525" 
d="M196 541l67 -138l69 138h183l-154 -267l158 -274h-187l-71 144l-72 -144h-183l157 273l-154 268h187z" />
    <glyph glyph-name="y" unicode="y" horiz-adv-x="549" 
d="M279 222l84 319h178l-171 -526q-30 -92 -72 -130.5t-116 -38.5q-75 0 -143 38l45 125q39 -22 68 -22q27 0 39 21l-183 533h182z" />
    <glyph glyph-name="z" unicode="z" horiz-adv-x="486" 
d="M26 0v118l215 281h-208v142h430v-118l-216 -281h216v-142h-437z" />
    <glyph glyph-name="braceleft" unicode="{" horiz-adv-x="436" 
d="M387 -140q-133 13 -190 57.5t-57 123.5q0 15 5 49.5t5 48.5q0 48 -25.5 67.5t-78.5 19.5h-17v121h17q53 0 78.5 20t25.5 67q0 14 -5 49t-5 49q0 79 57 123.5t190 57.5l23 -108q-67 -12 -90.5 -33.5t-23.5 -64.5q0 -13 5.5 -45t5.5 -49q0 -99 -112 -126q112 -27 112 -127
q0 -16 -5.5 -48t-5.5 -46q0 -43 23.5 -64t90.5 -33z" />
    <glyph glyph-name="bar" unicode="|" horiz-adv-x="316" 
d="M92 -119v908h132v-908h-132z" />
    <glyph glyph-name="braceright" unicode="}" horiz-adv-x="436" 
d="M50 -140l-24 109q67 12 90.5 33t23.5 64q0 14 -5 46t-5 48q0 101 112 127q-112 26 -112 126q0 17 5 49t5 45q0 43 -23.5 64.5t-90.5 33.5l24 108q132 -13 189 -57.5t57 -123.5q0 -14 -5 -49t-5 -49q0 -47 26 -67t78 -20h18v-121h-18q-53 0 -78.5 -19.5t-25.5 -67.5
q0 -14 5 -48.5t5 -49.5q0 -79 -57 -123.5t-189 -57.5z" />
    <glyph glyph-name="asciitilde" unicode="~" horiz-adv-x="460" 
d="M312 236q-34 0 -86 20q-45 18 -59 18q-17 0 -26 -10t-19 -35l-84 22q25 138 111 138q33 0 85 -21q44 -17 59 -17q18 0 27.5 10t18.5 34l83 -22q-25 -137 -110 -137z" />
    <glyph glyph-name="uni00A0" unicode="&#xa0;" horiz-adv-x="238" 
 />
    <glyph glyph-name="exclamdown" unicode="&#xa1;" horiz-adv-x="295" 
d="M54 533v167h187v-167h-187zM45 0v63l57 410h91l57 -410v-63h-205z" />
    <glyph glyph-name="cent" unicode="&#xa2;" horiz-adv-x="496" 
d="M379 706l-11 -82q68 -22 112 -77l-95 -103q-41 48 -97 48q-45 0 -72.5 -37.5t-27.5 -97.5v-3q0 -65 27.5 -101.5t77.5 -36.5q53 0 95 48l93 -98q-71 -86 -179 -93l-10 -79h-111l12 94q-75 28 -120 97t-45 162v11q0 114 63.5 190t167.5 86l9 72h111z" />
    <glyph glyph-name="sterling" unicode="&#xa3;" horiz-adv-x="558" 
d="M36 0v112l68 28v125h-67v136h67v62q0 122 64 186q63 63 170 63q120 0 200 -83l-97 -128q-43 46 -87 46q-30 0 -49 -19q-21 -20 -21 -67v-60h181v-136h-181v-116h247v-149h-495z" />
    <glyph glyph-name="yen" unicode="&#xa5;" horiz-adv-x="618" 
d="M64 261v117h114l-175 322h197l111 -238l111 238h194l-178 -322h117v-117h-157v-50h157v-117h-157v-94h-178v94h-156v117h156v50h-156z" />
    <glyph glyph-name="section" unicode="&#xa7;" horiz-adv-x="562" 
d="M441 244q44 -38 44 -96v-2q0 -70 -55 -114t-154 -44q-123 0 -210 65l66 111q74 -50 142 -50q49 0 49 30v2q0 14 -19.5 24t-70.5 26q-49 14 -80.5 25.5t-61.5 28.5t-44 39.5t-14 51.5v2q0 78 89 113q-45 37 -45 97v2q0 69 55.5 113t153.5 44q125 0 210 -65l-65 -111
q-73 50 -143 50q-49 0 -49 -30v-1q0 -14 19.5 -25t71.5 -26q101 -28 150 -58.5t49 -86.5v-2q0 -78 -88 -113zM342 295q21 0 34 10t13 27v2q0 16 -21 28.5t-69 26.5q-52 16 -78 16q-21 0 -34.5 -10t-13.5 -27v-2q0 -16 21 -28.5t69 -26.5q52 -16 79 -16z" />
    <glyph glyph-name="dieresis" unicode="&#xa8;" 
d="M271 583v134h147v-134h-147zM82 583v134h147v-134h-147z" />
    <glyph glyph-name="copyright" unicode="&#xa9;" horiz-adv-x="732" 
d="M366 -13q-139 0 -231.5 102.5t-92.5 254.5v11q0 152 93 255t232 103q138 0 230.5 -102.5t92.5 -254.5v-11q0 -152 -93 -255t-231 -103zM366 26q123 0 203 91t80 228v12q0 136 -79.5 226.5t-202.5 90.5q-124 0 -204 -91t-80 -228v-12q0 -136 80 -226.5t203 -90.5zM375 152
q-79 0 -129 54t-50 143v8q0 88 51 143t131 55q82 0 134 -60l-65 -70q-30 35 -68 35q-34 0 -56 -28t-22 -76v-4q0 -49 22.5 -77t56.5 -28q36 0 69 37l65 -66q-53 -66 -139 -66z" />
    <glyph glyph-name="ordfeminine" unicode="&#xaa;" horiz-adv-x="347" 
d="M127 399q-39 0 -63 23.5t-24 66.5v4q0 46 27 69.5t74 23.5q35 0 62 -12v6q0 47 -52 47q-31 0 -71 -18l-22 73q51 23 109 23q67 0 100 -33q31 -30 31 -91v-177h-96v31q-29 -36 -75 -36zM38 277v73h266v-73h-266zM162 462q18 0 30 11.5t12 30.5v23q-21 7 -34 7
q-39 0 -39 -36v-4q0 -32 31 -32z" />
    <glyph glyph-name="guillemotleft" unicode="&#xab;" horiz-adv-x="569" 
d="M429 36l-170 228v9l170 229l114 -56l-108 -177l109 -176zM184 36l-158 213v39l158 214l114 -56l-108 -177l109 -176z" />
    <glyph glyph-name="registered" unicode="&#xae;" horiz-adv-x="342" 
d="M171 360q-67 0 -112.5 49.5t-45.5 122.5v6q0 73 45.5 123t112.5 50t112.5 -49.5t45.5 -122.5v-6q0 -74 -45.5 -123.5t-112.5 -49.5zM171 379q60 0 99 44t39 110v6q0 65 -39 109t-99 44q-59 0 -98.5 -44.5t-39.5 -109.5v-6q0 -65 39 -109t99 -44zM101 445v187h76
q35 0 55.5 -16t20.5 -47v-1q0 -39 -34 -56l39 -67h-59l-32 56h-14v-56h-52zM153 543h22q24 0 24 22v1q0 22 -24 22h-22v-45z" />
    <glyph glyph-name="macron" unicode="&#xaf;" 
d="M82 589v106h336v-106h-336z" />
    <glyph glyph-name="degree" unicode="&#xb0;" horiz-adv-x="411" 
d="M205 353q-68 0 -115.5 49.5t-47.5 123.5v8q0 73 48 123t115 50t115 -50t48 -123v-8q0 -74 -47.5 -123.5t-115.5 -49.5zM205 443q29 0 48 23.5t19 61.5v4q0 38 -19 61.5t-48 23.5t-47.5 -23.5t-18.5 -61.5v-4q0 -38 18.5 -61.5t47.5 -23.5z" />
    <glyph glyph-name="plusminus" unicode="&#xb1;" horiz-adv-x="568" 
d="M520 354l-161 1l1 -156h-151v156l-160 -1v145l160 -1v157h151l-1 -157l161 1v-145zM519 0h-470v135h470v-135z" />
    <glyph glyph-name="acute" unicode="&#xb4;" 
d="M138 583l95 169l159 -52l-136 -117h-118z" />
    <glyph glyph-name="paragraph" unicode="&#xb6;" horiz-adv-x="521" 
d="M294 0v221h-14q-116 4 -188.5 64.5t-72.5 172.5v3q0 117 74 178t199 61h177v-700h-175z" />
    <glyph glyph-name="periodcentered" unicode="&#xb7;" horiz-adv-x="266" 
d="M40 220v185h185v-185h-185z" />
    <glyph glyph-name="cedilla" unicode="&#xb8;" 
d="M260 -159l-144 54l91 125h113z" />
    <glyph glyph-name="ordmasculine" unicode="&#xba;" horiz-adv-x="347" 
d="M173 396q-62 0 -102 42.5t-40 107.5v8q0 67 40.5 109t102.5 42t102 -42t40 -107v-9q0 -66 -40.5 -108.5t-102.5 -42.5zM45 277v73h257v-73h-257zM174 479q22 0 35 18.5t13 49.5v7q0 31 -13.5 50t-35.5 19t-35 -18.5t-13 -50.5v-6q0 -31 13.5 -50t35.5 -19z" />
    <glyph glyph-name="guillemotright" unicode="&#xbb;" horiz-adv-x="569" 
d="M386 36l-115 56l109 176l-109 177l115 57l158 -214v-39zM141 36l-115 56l109 176l-109 177l115 57l170 -229v-9z" />
    <glyph glyph-name="questiondown" unicode="&#xbf;" horiz-adv-x="482" 
d="M170 533v167h187v-167h-187zM250 -9q-105 0 -168 55t-63 147v1q0 152 174 201l12 78h113l23 -171l-7 -7q-140 -17 -140 -85v-2q0 -26 19 -41t52 -15q60 0 128 58l84 -130q-98 -89 -227 -89z" />
    <glyph glyph-name="Agrave" unicode="&#xc0;" horiz-adv-x="682" 
d="M4 0l246 704h182l247 -704h-189l-41 126h-220l-40 -126h-185zM274 270h130l-65 205zM410 748h-129l-135 98l167 51z" />
    <glyph glyph-name="Aacute" unicode="&#xc1;" horiz-adv-x="682" 
d="M4 0l246 704h182l247 -704h-189l-41 126h-220l-40 -126h-185zM274 270h130l-65 205zM272 748l98 149l166 -51l-134 -98h-130z" />
    <glyph glyph-name="Acircumflex" unicode="&#xc2;" horiz-adv-x="682" 
d="M4 0l246 704h182l247 -704h-189l-41 126h-220l-40 -126h-185zM274 270h130l-65 205zM157 747l108 138h152l108 -138h-118l-67 50l-67 -50h-116z" />
    <glyph glyph-name="Atilde" unicode="&#xc3;" horiz-adv-x="682" 
d="M4 0l246 704h182l247 -704h-189l-41 126h-220l-40 -126h-185zM274 270h130l-65 205zM428 748q-29 0 -89 20q-46 17 -60 17q-16 0 -25.5 -10t-18.5 -33l-85 21q13 71 39 104.5t71 33.5q28 0 90 -20q42 -16 58 -16q17 0 26.5 9.5t18.5 33.5l85 -22q-13 -71 -39 -104.5
t-71 -33.5z" />
    <glyph glyph-name="Adieresis" unicode="&#xc4;" horiz-adv-x="682" 
d="M4 0l246 704h182l247 -704h-189l-41 126h-220l-40 -126h-185zM274 270h130l-65 205zM366 749v129h149v-129h-149zM167 749v129h149v-129h-149z" />
    <glyph glyph-name="Aring" unicode="&#xc5;" horiz-adv-x="682" 
d="M4 0l234 672q-24 29 -24 68q0 49 36.5 81.5t90.5 32.5t90.5 -32.5t36.5 -81.5q0 -38 -24 -68l235 -672h-189l-41 126h-220l-40 -126h-185zM274 270h130l-65 205zM341 682q28 0 46 16.5t18 41.5t-18 41.5t-46 16.5t-45.5 -16.5t-17.5 -41.5t17.5 -41.5t45.5 -16.5z" />
    <glyph glyph-name="AE" unicode="&#xc6;" horiz-adv-x="915" 
d="M-5 0l307 700h577v-158h-288v-115h259v-149h-259v-120h293v-158h-470v126h-186l-53 -126h-180zM289 270h125v275h-12z" />
    <glyph glyph-name="Ccedilla" unicode="&#xc7;" horiz-adv-x="617" 
d="M332 -159l-144 54l76 105q-105 28 -168.5 118.5t-63.5 224.5v12q0 160 92.5 258.5t232.5 98.5q148 0 242 -110l-116 -123q-55 66 -123 66q-63 0 -103 -52t-40 -140v-4q0 -91 40 -142.5t103 -51.5q41 0 70 18t58 51l114 -116q-87 -107 -221 -118z" />
    <glyph glyph-name="Egrave" unicode="&#xc8;" horiz-adv-x="570" 
d="M364 741h-129l-135 98l167 51zM52 0v700h482v-158h-304v-115h274v-149h-274v-120h308v-158h-486z" />
    <glyph glyph-name="Eacute" unicode="&#xc9;" horiz-adv-x="570" 
d="M225 741l98 149l166 -51l-134 -98h-130zM52 0v700h482v-158h-304v-115h274v-149h-274v-120h308v-158h-486z" />
    <glyph glyph-name="Ecircumflex" unicode="&#xca;" horiz-adv-x="570" 
d="M52 0v700h482v-158h-304v-115h274v-149h-274v-120h308v-158h-486zM110 741l108 138h152l108 -138h-118l-67 50l-67 -50h-116z" />
    <glyph glyph-name="Edieresis" unicode="&#xcb;" horiz-adv-x="570" 
d="M319 742v129h149v-129h-149zM120 742v129h149v-129h-149zM52 0v700h482v-158h-304v-115h274v-149h-274v-120h308v-158h-486z" />
    <glyph glyph-name="Igrave" unicode="&#xcc;" horiz-adv-x="291" 
d="M55 0v700h180v-700h-180zM215 741h-129l-135 98l167 51z" />
    <glyph glyph-name="Iacute" unicode="&#xcd;" horiz-adv-x="291" 
d="M55 0v700h180v-700h-180zM77 741l98 149l166 -51l-134 -98h-130z" />
    <glyph glyph-name="Icircumflex" unicode="&#xce;" horiz-adv-x="291" 
d="M55 0v700h180v-700h-180zM-38 741l108 138h152l108 -138h-118l-67 50l-67 -50h-116z" />
    <glyph glyph-name="Idieresis" unicode="&#xcf;" horiz-adv-x="291" 
d="M55 0v700h180v-700h-180zM171 742v129h149v-129h-149zM-28 742v129h149v-129h-149z" />
    <glyph glyph-name="Eth" unicode="&#xd0;" horiz-adv-x="705" 
d="M89 0v280h-66v145h66v275h231q166 0 259.5 -92.5t93.5 -249.5v-12q0 -157 -94.5 -251.5t-261.5 -94.5h-228zM362 281h-96v-123h56q78 0 122.5 47.5t44.5 139.5v9q0 94 -44 141t-123 47h-56v-119h96v-142z" />
    <glyph glyph-name="Ntilde" unicode="&#xd1;" horiz-adv-x="682" 
d="M428 741q-29 0 -89 20q-46 17 -60 17q-16 0 -25.5 -10t-18.5 -33l-85 21q13 71 39 104.5t71 33.5q28 0 90 -20q42 -16 58 -16q17 0 26.5 9.5t18.5 33.5l85 -22q-13 -71 -39 -104.5t-71 -33.5zM52 0v700h169l233 -352v352h177v-700h-160l-242 367v-367h-177z" />
    <glyph glyph-name="Ograve" unicode="&#xd2;" horiz-adv-x="713" 
d="M425 748h-129l-135 98l167 51zM356 -13q-142 0 -233 99t-91 256v15q0 156 92 256t233 100q142 0 233 -99t91 -256v-15q0 -156 -92 -256t-233 -100zM357 150q64 0 102 52t38 142v11q0 90 -39 142.5t-102 52.5t-101.5 -52t-38.5 -142v-11q0 -90 39 -142.5t102 -52.5z" />
    <glyph glyph-name="Oacute" unicode="&#xd3;" horiz-adv-x="713" 
d="M287 748l98 149l166 -51l-134 -98h-130zM356 -13q-142 0 -233 99t-91 256v15q0 156 92 256t233 100q142 0 233 -99t91 -256v-15q0 -156 -92 -256t-233 -100zM357 150q64 0 102 52t38 142v11q0 90 -39 142.5t-102 52.5t-101.5 -52t-38.5 -142v-11q0 -90 39 -142.5
t102 -52.5z" />
    <glyph glyph-name="Ocircumflex" unicode="&#xd4;" horiz-adv-x="713" 
d="M356 -13q-142 0 -233 99t-91 256v15q0 156 92 256t233 100q142 0 233 -99t91 -256v-15q0 -156 -92 -256t-233 -100zM357 150q64 0 102 52t38 142v11q0 90 -39 142.5t-102 52.5t-101.5 -52t-38.5 -142v-11q0 -90 39 -142.5t102 -52.5zM172 748l108 138h152l108 -138h-118
l-67 50l-67 -50h-116z" />
    <glyph glyph-name="Otilde" unicode="&#xd5;" horiz-adv-x="713" 
d="M444 748q-29 0 -89 20q-46 17 -60 17q-16 0 -25.5 -10t-18.5 -33l-85 21q13 71 39 104.5t71 33.5q28 0 90 -20q42 -16 58 -16q17 0 26.5 9.5t18.5 33.5l85 -22q-13 -71 -39 -104.5t-71 -33.5zM356 -13q-142 0 -233 99t-91 256v15q0 156 92 256t233 100q142 0 233 -99
t91 -256v-15q0 -156 -92 -256t-233 -100zM357 150q64 0 102 52t38 142v11q0 90 -39 142.5t-102 52.5t-101.5 -52t-38.5 -142v-11q0 -90 39 -142.5t102 -52.5z" />
    <glyph glyph-name="Odieresis" unicode="&#xd6;" horiz-adv-x="713" 
d="M381 749v129h149v-129h-149zM182 749v129h149v-129h-149zM356 -13q-142 0 -233 99t-91 256v15q0 156 92 256t233 100q142 0 233 -99t91 -256v-15q0 -156 -92 -256t-233 -100zM357 150q64 0 102 52t38 142v11q0 90 -39 142.5t-102 52.5t-101.5 -52t-38.5 -142v-11
q0 -90 39 -142.5t102 -52.5z" />
    <glyph glyph-name="multiply" unicode="&#xd7;" horiz-adv-x="568" 
d="M414 110l-131 136l-131 -136l-108 106l136 135l-137 135l111 108l131 -136l131 136l109 -106l-137 -135l137 -135z" />
    <glyph glyph-name="Oslash" unicode="&#xd8;" horiz-adv-x="713" 
d="M561 705h124l-82 -108q78 -97 78 -239v-15q0 -156 -92 -256t-233 -100q-98 0 -173 49l-31 -41h-123l81 107q-78 99 -78 240v15q0 156 92 256t233 100q95 0 172 -49zM213 345q0 -55 13 -94l205 279q-32 24 -75 24q-64 0 -103.5 -53t-39.5 -144v-12zM358 146q64 0 103 53
t39 144v12q0 51 -14 93l-204 -278q33 -24 76 -24z" />
    <glyph glyph-name="Ugrave" unicode="&#xd9;" horiz-adv-x="659" 
d="M398 741h-129l-135 98l167 51zM328 -12q-133 0 -208 72t-75 217v423h181v-425q0 -61 27.5 -92.5t75.5 -31.5q49 0 76 30t27 91v428h182v-420q0 -147 -76 -219.5t-210 -72.5z" />
    <glyph glyph-name="Uacute" unicode="&#xda;" horiz-adv-x="659" 
d="M260 741l98 149l166 -51l-134 -98h-130zM328 -12q-133 0 -208 72t-75 217v423h181v-425q0 -61 27.5 -92.5t75.5 -31.5q49 0 76 30t27 91v428h182v-420q0 -147 -76 -219.5t-210 -72.5z" />
    <glyph glyph-name="Ucircumflex" unicode="&#xdb;" horiz-adv-x="659" 
d="M328 -12q-133 0 -208 72t-75 217v423h181v-425q0 -61 27.5 -92.5t75.5 -31.5q49 0 76 30t27 91v428h182v-420q0 -147 -76 -219.5t-210 -72.5zM145 741l108 138h152l108 -138h-118l-67 50l-67 -50h-116z" />
    <glyph glyph-name="Udieresis" unicode="&#xdc;" horiz-adv-x="659" 
d="M353 742v129h149v-129h-149zM154 742v129h149v-129h-149zM328 -12q-133 0 -208 72t-75 217v423h181v-425q0 -61 27.5 -92.5t75.5 -31.5q49 0 76 30t27 91v428h182v-420q0 -147 -76 -219.5t-210 -72.5z" />
    <glyph glyph-name="Yacute" unicode="&#xdd;" horiz-adv-x="626" 
d="M223 0v262l-225 438h199l117 -253l118 253h196l-225 -436v-264h-180zM243 741l98 149l166 -51l-134 -98h-130z" />
    <glyph glyph-name="Thorn" unicode="&#xde;" horiz-adv-x="598" 
d="M52 0v700h179v-97h73q124 0 197.5 -63t73.5 -178v-5q0 -120 -77 -184t-198 -64h-69v-109h-179zM231 258h63q47 0 74 26t27 70v3q0 48 -26.5 72.5t-75.5 24.5h-62v-196z" />
    <glyph glyph-name="germandbls" unicode="&#xdf;" horiz-adv-x="571" 
d="M277 -3v132q46 4 71 26t25 59v1q0 73 -96 86v103q71 39 71 105v2q0 33 -17 52.5t-44 19.5q-31 0 -49.5 -25t-18.5 -71v-487h-176v484q0 113 64 179.5t183 66.5q106 0 167.5 -56t61.5 -141v-4q0 -106 -97 -161q125 -46 125 -169v-3q0 -98 -73 -151t-197 -48z" />
    <glyph glyph-name="agrave" unicode="&#xe0;" horiz-adv-x="529" 
d="M178 -11q-69 0 -113.5 43.5t-44.5 120.5v7q0 84 50 127.5t135 43.5q63 0 112 -21v13q0 84 -94 84q-55 0 -128 -30l-40 130q93 42 197 42q123 0 183 -60q55 -55 55 -165v-324h-174v55q-52 -66 -138 -66zM243 104q33 0 54 21.5t21 57.5v40q-28 13 -61 13t-51.5 -18
t-18.5 -49v-4q0 -28 15.5 -44t40.5 -17zM215 587l-136 117l159 52l95 -169h-118z" />
    <glyph glyph-name="aacute" unicode="&#xe1;" horiz-adv-x="529" 
d="M178 -11q-69 0 -113.5 43.5t-44.5 120.5v7q0 84 50 127.5t135 43.5q63 0 112 -21v13q0 84 -94 84q-55 0 -128 -30l-40 130q93 42 197 42q123 0 183 -60q55 -55 55 -165v-324h-174v55q-52 -66 -138 -66zM243 104q33 0 54 21.5t21 57.5v40q-28 13 -61 13t-51.5 -18
t-18.5 -49v-4q0 -28 15.5 -44t40.5 -17zM200 587l95 169l159 -52l-136 -117h-118z" />
    <glyph glyph-name="acircumflex" unicode="&#xe2;" horiz-adv-x="529" 
d="M178 -11q-69 0 -113.5 43.5t-44.5 120.5v7q0 84 50 127.5t135 43.5q63 0 112 -21v13q0 84 -94 84q-55 0 -128 -30l-40 130q93 42 197 42q123 0 183 -60q55 -55 55 -165v-324h-174v55q-52 -66 -138 -66zM243 104q33 0 54 21.5t21 57.5v40q-28 13 -61 13t-51.5 -18
t-18.5 -49v-4q0 -28 15.5 -44t40.5 -17zM85 587l113 152h138l113 -152h-111l-72 57l-72 -57h-109z" />
    <glyph glyph-name="atilde" unicode="&#xe3;" horiz-adv-x="529" 
d="M178 -11q-69 0 -113.5 43.5t-44.5 120.5v7q0 84 50 127.5t135 43.5q63 0 112 -21v13q0 84 -94 84q-55 0 -128 -30l-40 130q93 42 197 42q123 0 183 -60q55 -55 55 -165v-324h-174v55q-52 -66 -138 -66zM243 104q33 0 54 21.5t21 57.5v40q-28 13 -61 13t-51.5 -18
t-18.5 -49v-4q0 -28 15.5 -44t40.5 -17zM351 586q-30 0 -84 20q-44 17 -58 17q-18 0 -26.5 -9.5t-17.5 -33.5l-84 21q13 71 38.5 104.5t69.5 33.5q30 0 84 -20q44 -17 58 -17q17 0 26 9.5t18 33.5l84 -21q-13 -71 -38.5 -104.5t-69.5 -33.5z" />
    <glyph glyph-name="adieresis" unicode="&#xe4;" horiz-adv-x="529" 
d="M178 -11q-69 0 -113.5 43.5t-44.5 120.5v7q0 84 50 127.5t135 43.5q63 0 112 -21v13q0 84 -94 84q-55 0 -128 -30l-40 130q93 42 197 42q123 0 183 -60q55 -55 55 -165v-324h-174v55q-52 -66 -138 -66zM243 104q33 0 54 21.5t21 57.5v40q-28 13 -61 13t-51.5 -18
t-18.5 -49v-4q0 -28 15.5 -44t40.5 -17zM288 587v134h147v-134h-147zM99 587v134h147v-134h-147z" />
    <glyph glyph-name="aring" unicode="&#xe5;" horiz-adv-x="529" 
d="M178 -11q-69 0 -113.5 43.5t-44.5 120.5v7q0 84 50 127.5t135 43.5q63 0 112 -21v13q0 84 -94 84q-55 0 -128 -30l-40 130q93 42 197 42q123 0 183 -60q55 -55 55 -165v-324h-174v55q-52 -66 -138 -66zM243 104q33 0 54 21.5t21 57.5v40q-28 13 -61 13t-51.5 -18
t-18.5 -49v-4q0 -28 15.5 -44t40.5 -17zM267 586q-50 0 -85 34t-35 83t35 82.5t85 33.5t85 -33.5t35 -82.5t-35 -83t-85 -34zM267 641q25 0 42.5 18t17.5 44t-17.5 44t-42.5 18t-42.5 -18t-17.5 -44t17.5 -44t42.5 -18z" />
    <glyph glyph-name="ae" unicode="&#xe6;" horiz-adv-x="824" 
d="M197 -11q-78 0 -127.5 43.5t-49.5 123.5v5q0 84 50 127t135 43q63 0 112 -21v13q0 84 -94 84q-60 0 -128 -32l-40 133q93 41 196 41q108 0 163 -58q60 62 148 62q113 0 175 -80.5t62 -208.5q0 -3 -0.5 -22.5t-0.5 -27.5h-315q20 -88 105 -88q57 0 110 51l84 -100
q-84 -89 -206 -89q-123 0 -193 84q-83 -83 -186 -83zM481 313h153q-3 50 -23 77t-53 27q-66 0 -77 -104zM247 106q47 0 89 47q-11 29 -16 70q-32 13 -62 13q-33 0 -52 -18t-19 -49v-4q0 -27 16.5 -43t43.5 -16z" />
    <glyph glyph-name="ccedilla" unicode="&#xe7;" horiz-adv-x="487" 
d="M261 -159l-144 54l77 105q-77 26 -122.5 96.5t-45.5 165.5v11q0 121 72.5 200t185.5 79q120 0 192 -91l-103 -109q-36 46 -83 46q-41 0 -66.5 -35t-25.5 -90v-3q0 -59 25.5 -94t68.5 -35q44 0 85 46l100 -103q-65 -84 -167 -95z" />
    <glyph glyph-name="egrave" unicode="&#xe8;" horiz-adv-x="535" 
d="M287 -12q-116 0 -189 75t-73 200v11q0 122 69 200.5t176 78.5q116 0 178 -80t62 -209q0 -36 -1 -50h-314q20 -88 104 -88q57 0 111 51l84 -100q-84 -89 -207 -89zM193 313h153q-4 50 -24 77t-52 27q-66 0 -77 -104zM219 587l-136 117l159 52l95 -169h-118z" />
    <glyph glyph-name="eacute" unicode="&#xe9;" horiz-adv-x="535" 
d="M204 587l95 169l159 -52l-136 -117h-118zM287 -12q-116 0 -189 75t-73 200v11q0 122 69 200.5t176 78.5q116 0 178 -80t62 -209q0 -36 -1 -50h-314q20 -88 104 -88q57 0 111 51l84 -100q-84 -89 -207 -89zM193 313h153q-4 50 -24 77t-52 27q-66 0 -77 -104z" />
    <glyph glyph-name="ecircumflex" unicode="&#xea;" horiz-adv-x="535" 
d="M89 586l113 152h138l113 -152h-111l-72 57l-72 -57h-109zM287 -12q-116 0 -189 75t-73 200v11q0 122 69 200.5t176 78.5q116 0 178 -80t62 -209q0 -36 -1 -50h-314q20 -88 104 -88q57 0 111 51l84 -100q-84 -89 -207 -89zM193 313h153q-4 50 -24 77t-52 27
q-66 0 -77 -104z" />
    <glyph glyph-name="edieresis" unicode="&#xeb;" horiz-adv-x="535" 
d="M291 587v134h147v-134h-147zM102 587v134h147v-134h-147zM287 -12q-116 0 -189 75t-73 200v11q0 122 69 200.5t176 78.5q116 0 178 -80t62 -209q0 -36 -1 -50h-314q20 -88 104 -88q57 0 111 51l84 -100q-84 -89 -207 -89zM193 313h153q-4 50 -24 77t-52 27
q-66 0 -77 -104z" />
    <glyph glyph-name="igrave" unicode="&#xec;" horiz-adv-x="269" 
d="M47 0v541h175v-541h-175zM83 583l-136 117l159 52l95 -169h-118z" />
    <glyph glyph-name="iacute" unicode="&#xed;" horiz-adv-x="269" 
d="M69 583l95 169l159 -52l-136 -117h-118zM47 0v541h175v-541h-175z" />
    <glyph glyph-name="icircumflex" unicode="&#xee;" horiz-adv-x="269" 
d="M-47 583l113 152h138l113 -152h-111l-72 57l-72 -57h-109zM47 0v541h175v-541h-175z" />
    <glyph glyph-name="idieresis" unicode="&#xef;" horiz-adv-x="269" 
d="M156 583v134h147v-134h-147zM-33 583v134h147v-134h-147zM47 0v541h175v-541h-175z" />
    <glyph glyph-name="eth" unicode="&#xf0;" horiz-adv-x="576" 
d="M488 647l-59 -15q121 -150 121 -324v-12q0 -140 -71.5 -224.5t-192.5 -84.5q-115 0 -187.5 78t-72.5 206v16q0 115 56.5 184.5t141.5 69.5q60 0 109 -36q-24 41 -63 87l-105 -26l-27 79l64 16q-40 35 -78 63h214l26 -23l97 25zM289 138q41 0 65.5 35t24.5 91v9
q0 57 -25.5 92.5t-66.5 35.5t-65 -35t-24 -91v-9q0 -57 25 -92.5t66 -35.5z" />
    <glyph glyph-name="ntilde" unicode="&#xf1;" horiz-adv-x="561" 
d="M43 0v541h176v-72q58 83 143 83q75 0 117.5 -48t42.5 -131v-373h-176v319q0 37 -17 57t-45 20q-29 0 -47 -20t-18 -57v-319h-176zM366 586q-30 0 -84 20q-44 17 -58 17q-18 0 -26.5 -9.5t-17.5 -33.5l-84 21q13 71 38.5 104.5t69.5 33.5q30 0 84 -20q44 -17 58 -17
q17 0 26 9.5t18 33.5l84 -21q-13 -71 -38.5 -104.5t-69.5 -33.5z" />
    <glyph glyph-name="ograve" unicode="&#xf2;" horiz-adv-x="576" 
d="M287 -13q-114 0 -187.5 77.5t-73.5 197.5v15q0 120 74.5 198t188.5 78t188 -77.5t74 -197.5v-15q0 -120 -74.5 -198t-189.5 -78zM289 138q41 0 65.5 35t24.5 92v9q0 57 -25 92.5t-66 35.5q-42 0 -66 -35t-24 -92v-9q0 -57 25 -92.5t66 -35.5zM237 587l-136 117l159 52
l95 -169h-118z" />
    <glyph glyph-name="oacute" unicode="&#xf3;" horiz-adv-x="576" 
d="M222 587l95 169l159 -52l-136 -117h-118zM287 -13q-114 0 -187.5 77.5t-73.5 197.5v15q0 120 74.5 198t188.5 78t188 -77.5t74 -197.5v-15q0 -120 -74.5 -198t-189.5 -78zM289 138q41 0 65.5 35t24.5 92v9q0 57 -25 92.5t-66 35.5q-42 0 -66 -35t-24 -92v-9
q0 -57 25 -92.5t66 -35.5z" />
    <glyph glyph-name="ocircumflex" unicode="&#xf4;" horiz-adv-x="576" 
d="M106 586l113 152h138l113 -152h-111l-72 57l-72 -57h-109zM287 -13q-114 0 -187.5 77.5t-73.5 197.5v15q0 120 74.5 198t188.5 78t188 -77.5t74 -197.5v-15q0 -120 -74.5 -198t-189.5 -78zM289 138q41 0 65.5 35t24.5 92v9q0 57 -25 92.5t-66 35.5q-42 0 -66 -35t-24 -92
v-9q0 -57 25 -92.5t66 -35.5z" />
    <glyph glyph-name="otilde" unicode="&#xf5;" horiz-adv-x="576" 
d="M287 -13q-114 0 -187.5 77.5t-73.5 197.5v15q0 120 74.5 198t188.5 78t188 -77.5t74 -197.5v-15q0 -120 -74.5 -198t-189.5 -78zM289 138q41 0 65.5 35t24.5 92v9q0 57 -25 92.5t-66 35.5q-42 0 -66 -35t-24 -92v-9q0 -57 25 -92.5t66 -35.5zM372 586q-30 0 -84 20
q-44 17 -58 17q-18 0 -26.5 -9.5t-17.5 -33.5l-84 21q13 71 38.5 104.5t69.5 33.5q30 0 84 -20q44 -17 58 -17q17 0 26 9.5t18 33.5l84 -21q-13 -71 -38.5 -104.5t-69.5 -33.5z" />
    <glyph glyph-name="odieresis" unicode="&#xf6;" horiz-adv-x="576" 
d="M309 587v134h147v-134h-147zM120 587v134h147v-134h-147zM287 -13q-114 0 -187.5 77.5t-73.5 197.5v15q0 120 74.5 198t188.5 78t188 -77.5t74 -197.5v-15q0 -120 -74.5 -198t-189.5 -78zM289 138q41 0 65.5 35t24.5 92v9q0 57 -25 92.5t-66 35.5q-42 0 -66 -35t-24 -92
v-9q0 -57 25 -92.5t66 -35.5z" />
    <glyph glyph-name="divide" unicode="&#xf7;" horiz-adv-x="568" 
d="M202 483v150h164v-150h-164zM522 280h-476v144h476v-144zM202 71v150h164v-150h-164z" />
    <glyph glyph-name="oslash" unicode="&#xf8;" horiz-adv-x="576" 
d="M450 546h113l-71 -89q59 -75 59 -179v-15q0 -120 -74.5 -198t-189.5 -78q-77 0 -137 37l-24 -29h-113l71 88q-58 74 -58 179v15q0 120 74.5 198t188.5 78q75 0 137 -38zM191 265q0 -30 5 -47l137 178q-21 13 -45 13q-44 0 -70.5 -37t-26.5 -96v-11zM289 131q44 0 70.5 37
t26.5 96v11q0 23 -5 46l-137 -178q20 -12 45 -12z" />
    <glyph glyph-name="ugrave" unicode="&#xf9;" horiz-adv-x="561" 
d="M199 -11q-75 0 -117.5 48t-42.5 131v373h176v-319q0 -37 17 -57t45 -20q29 0 47 20t18 57v319h176v-541h-176v71q-57 -82 -143 -82zM226 583l-136 117l159 52l95 -169h-118z" />
    <glyph glyph-name="uacute" unicode="&#xfa;" horiz-adv-x="561" 
d="M212 583l95 169l159 -52l-136 -117h-118zM199 -11q-75 0 -117.5 48t-42.5 131v373h176v-319q0 -37 17 -57t45 -20q29 0 47 20t18 57v319h176v-541h-176v71q-57 -82 -143 -82z" />
    <glyph glyph-name="ucircumflex" unicode="&#xfb;" horiz-adv-x="561" 
d="M96 583l113 152h138l113 -152h-111l-72 57l-72 -57h-109zM199 -11q-75 0 -117.5 48t-42.5 131v373h176v-319q0 -37 17 -57t45 -20q29 0 47 20t18 57v319h176v-541h-176v71q-57 -82 -143 -82z" />
    <glyph glyph-name="udieresis" unicode="&#xfc;" horiz-adv-x="561" 
d="M299 583v134h147v-134h-147zM110 583v134h147v-134h-147zM199 -11q-75 0 -117.5 48t-42.5 131v373h176v-319q0 -37 17 -57t45 -20q29 0 47 20t18 57v319h176v-541h-176v71q-57 -82 -143 -82z" />
    <glyph glyph-name="yacute" unicode="&#xfd;" horiz-adv-x="549" 
d="M279 222l84 319h178l-171 -526q-30 -92 -72 -130.5t-116 -38.5q-75 0 -143 38l45 125q39 -22 68 -22q27 0 39 21l-183 533h182zM210 583l95 169l159 -52l-136 -117h-118z" />
    <glyph glyph-name="thorn" unicode="&#xfe;" horiz-adv-x="592" 
d="M43 -151v875h176v-252q28 38 61.5 59t82.5 21q86 0 144 -70.5t58 -200.5v-18q0 -132 -57.5 -203t-144.5 -71q-85 0 -144 76v-216h-176zM304 139q39 0 63.5 34.5t24.5 90.5v13q0 56 -24.5 90.5t-63.5 34.5t-63.5 -34.5t-24.5 -90.5v-13q0 -56 24.5 -90.5t63.5 -34.5z" />
    <glyph glyph-name="ydieresis" unicode="&#xff;" horiz-adv-x="549" 
d="M279 222l84 319h178l-171 -526q-30 -92 -72 -130.5t-116 -38.5q-75 0 -143 38l45 125q39 -22 68 -22q27 0 39 21l-183 533h182zM297 583v134h147v-134h-147zM108 583v134h147v-134h-147z" />
    <glyph glyph-name="Amacron" unicode="&#x100;" horiz-adv-x="682" 
d="M4 0l246 704h182l247 -704h-189l-41 126h-220l-40 -126h-185zM274 270h130l-65 205zM163 754v110h356v-110h-356z" />
    <glyph glyph-name="amacron" unicode="&#x101;" horiz-adv-x="529" 
d="M178 -11q-69 0 -113.5 43.5t-44.5 120.5v7q0 84 50 127.5t135 43.5q63 0 112 -21v13q0 84 -94 84q-55 0 -128 -30l-40 130q93 42 197 42q123 0 183 -60q55 -55 55 -165v-324h-174v55q-52 -66 -138 -66zM243 104q33 0 54 21.5t21 57.5v40q-28 13 -61 13t-51.5 -18
t-18.5 -49v-4q0 -28 15.5 -44t40.5 -17zM99 593v106h336v-106h-336z" />
    <glyph glyph-name="Abreve" unicode="&#x102;" horiz-adv-x="682" 
d="M4 0l246 704h182l247 -704h-189l-41 126h-220l-40 -126h-185zM274 270h130l-65 205zM341 746q-75 0 -121 35t-53 103h104q16 -42 70 -42t70 42h103q-7 -68 -52.5 -103t-120.5 -35z" />
    <glyph glyph-name="abreve" unicode="&#x103;" horiz-adv-x="529" 
d="M178 -11q-69 0 -113.5 43.5t-44.5 120.5v7q0 84 50 127.5t135 43.5q63 0 112 -21v13q0 84 -94 84q-55 0 -128 -30l-40 130q93 42 197 42q123 0 183 -60q55 -55 55 -165v-324h-174v55q-52 -66 -138 -66zM243 104q33 0 54 21.5t21 57.5v40q-28 13 -61 13t-51.5 -18
t-18.5 -49v-4q0 -28 15.5 -44t40.5 -17zM267 584q-74 0 -121 39.5t-53 111.5h101q15 -53 73 -53t73 53h101q-6 -72 -53 -111.5t-121 -39.5z" />
    <glyph glyph-name="Aogonek" unicode="&#x104;" horiz-adv-x="682" 
d="M685 -77v-80q-27 -4 -58 -4q-65 0 -102 21.5t-37 58.5q0 41 40 81h-38l-41 126h-220l-40 -126h-185l246 704h182l247 -704h-38q-20 -24 -20 -45q0 -33 64 -32zM274 270h130l-65 205z" />
    <glyph glyph-name="aogonek" unicode="&#x105;" horiz-adv-x="529" 
d="M496 -77v-80q-27 -4 -58 -4q-65 0 -102 21.5t-37 58.5q0 41 40 81h-23v55q-52 -66 -138 -66q-69 0 -113.5 43.5t-44.5 120.5v7q0 84 50 127.5t135 43.5q63 0 112 -21v13q0 84 -94 84q-55 0 -128 -30l-40 130q93 42 197 42q123 0 183 -60q55 -55 55 -165v-324h-38
q-20 -24 -20 -45q0 -33 64 -32zM243 104q33 0 54 21.5t21 57.5v40q-28 13 -61 13t-51.5 -18t-18.5 -49v-4q0 -28 15.5 -44t40.5 -17z" />
    <glyph glyph-name="Cacute" unicode="&#x106;" horiz-adv-x="617" 
d="M350 -12q-137 0 -227.5 97.5t-90.5 257.5v12q0 160 92.5 258.5t232.5 98.5q148 0 242 -110l-116 -123q-55 66 -123 66q-63 0 -103 -52t-40 -140v-4q0 -91 40 -142.5t103 -51.5q41 0 70 18t58 51l114 -116q-98 -120 -252 -120zM275 748l98 149l166 -51l-134 -98h-130z" />
    <glyph glyph-name="cacute" unicode="&#x107;" horiz-adv-x="487" 
d="M210 587l95 169l159 -52l-136 -117h-118zM277 -13q-110 0 -180.5 77.5t-70.5 197.5v11q0 121 72.5 200t185.5 79q120 0 192 -91l-103 -109q-36 46 -83 46q-41 0 -66.5 -35t-25.5 -90v-3q0 -59 25.5 -94t68.5 -35q44 0 85 46l100 -103q-76 -97 -200 -97z" />
    <glyph glyph-name="Cdotaccent" unicode="&#x10a;" horiz-adv-x="617" 
d="M267 749v129h154v-129h-154zM350 -12q-137 0 -227.5 97.5t-90.5 257.5v12q0 160 92.5 258.5t232.5 98.5q148 0 242 -110l-116 -123q-55 66 -123 66q-63 0 -103 -52t-40 -140v-4q0 -91 40 -142.5t103 -51.5q41 0 70 18t58 51l114 -116q-98 -120 -252 -120z" />
    <glyph glyph-name="cdotaccent" unicode="&#x10b;" horiz-adv-x="487" 
d="M277 -13q-110 0 -180.5 77.5t-70.5 197.5v11q0 121 72.5 200t185.5 79q120 0 192 -91l-103 -109q-36 46 -83 46q-41 0 -66.5 -35t-25.5 -90v-3q0 -59 25.5 -94t68.5 -35q44 0 85 46l100 -103q-76 -97 -200 -97zM200 587v134h152v-134h-152z" />
    <glyph glyph-name="Ccaron" unicode="&#x10c;" horiz-adv-x="617" 
d="M350 -12q-137 0 -227.5 97.5t-90.5 257.5v12q0 160 92.5 258.5t232.5 98.5q148 0 242 -110l-116 -123q-55 66 -123 66q-63 0 -103 -52t-40 -140v-4q0 -91 40 -142.5t103 -51.5q41 0 70 18t58 51l114 -116q-98 -120 -252 -120zM528 886l-108 -138h-152l-108 138h118
l67 -50l67 50h116z" />
    <glyph glyph-name="ccaron" unicode="&#x10d;" horiz-adv-x="487" 
d="M458 739l-113 -152h-138l-113 152h111l72 -57l72 57h109zM277 -13q-110 0 -180.5 77.5t-70.5 197.5v11q0 121 72.5 200t185.5 79q120 0 192 -91l-103 -109q-36 46 -83 46q-41 0 -66.5 -35t-25.5 -90v-3q0 -59 25.5 -94t68.5 -35q44 0 85 46l100 -103q-76 -97 -200 -97z
" />
    <glyph glyph-name="Dcaron" unicode="&#x10e;" horiz-adv-x="667" 
d="M52 0v700h230q167 0 260 -92.5t93 -249.5v-12q0 -157 -94 -251.5t-262 -94.5h-227zM284 539h-52v-378h52q78 0 122.5 46.5t44.5 137.5v9q0 92 -44.5 138.5t-122.5 46.5zM506 879l-108 -138h-152l-108 138h118l67 -50l67 50h116z" />
    <glyph glyph-name="dcaron" unicode="&#x10f;" horiz-adv-x="592" 
d="M587 578l11 194h116v-3l-57 -191h-70zM230 -11q-87 0 -145 70.5t-58 200.5v18q0 132 58 203t144 71q84 0 145 -76v248h175v-724h-175v69q-61 -80 -144 -80zM289 139q38 0 62.5 34.5t24.5 90.5v13q0 56 -24.5 90.5t-62.5 34.5q-39 0 -63.5 -34.5t-24.5 -90.5v-13
q0 -56 24.5 -90.5t63.5 -34.5z" />
    <glyph glyph-name="Dcroat" unicode="&#x110;" horiz-adv-x="705" 
d="M89 0v280h-66v145h66v275h231q166 0 259.5 -92.5t93.5 -249.5v-12q0 -157 -94.5 -251.5t-261.5 -94.5h-228zM362 281h-96v-123h56q78 0 122.5 47.5t44.5 139.5v9q0 94 -44 141t-123 47h-56v-119h96v-142z" />
    <glyph glyph-name="dcroat" unicode="&#x111;" horiz-adv-x="592" 
d="M248 588v90h126v46h175v-46h52v-91h-52v-587h-175v69q-61 -80 -144 -80q-87 0 -145 70.5t-58 200.5v18q0 132 58 203t144 71q84 0 145 -76v112h-126zM289 139q38 0 62.5 34.5t24.5 90.5v13q0 56 -24.5 90.5t-62.5 34.5q-39 0 -63.5 -34.5t-24.5 -90.5v-13
q0 -56 24.5 -90.5t63.5 -34.5z" />
    <glyph glyph-name="Emacron" unicode="&#x112;" horiz-adv-x="570" 
d="M116 747v110h356v-110h-356zM52 0v700h482v-158h-304v-115h274v-149h-274v-120h308v-158h-486z" />
    <glyph glyph-name="emacron" unicode="&#x113;" horiz-adv-x="535" 
d="M287 -12q-116 0 -189 75t-73 200v11q0 122 69 200.5t176 78.5q116 0 178 -80t62 -209q0 -36 -1 -50h-314q20 -88 104 -88q57 0 111 51l84 -100q-84 -89 -207 -89zM193 313h153q-4 50 -24 77t-52 27q-66 0 -77 -104zM102 593v106h336v-106h-336z" />
    <glyph glyph-name="Ebreve" unicode="&#x114;" horiz-adv-x="570" 
d="M295 739q-75 0 -121 35t-53 103h104q16 -42 70 -42t70 42h103q-7 -68 -52.5 -103t-120.5 -35zM52 0v700h482v-158h-304v-115h274v-149h-274v-120h308v-158h-486z" />
    <glyph glyph-name="ebreve" unicode="&#x115;" horiz-adv-x="535" 
d="M287 -12q-116 0 -189 75t-73 200v11q0 122 69 200.5t176 78.5q116 0 178 -80t62 -209q0 -36 -1 -50h-314q20 -88 104 -88q57 0 111 51l84 -100q-84 -89 -207 -89zM193 313h153q-4 50 -24 77t-52 27q-66 0 -77 -104zM270 584q-74 0 -121 39.5t-53 111.5h101q15 -53 73 -53
t73 53h101q-6 -72 -53 -111.5t-121 -39.5z" />
    <glyph glyph-name="Edotaccent" unicode="&#x116;" horiz-adv-x="570" 
d="M217 742v129h154v-129h-154zM52 0v700h482v-158h-304v-115h274v-149h-274v-120h308v-158h-486z" />
    <glyph glyph-name="edotaccent" unicode="&#x117;" horiz-adv-x="535" 
d="M287 -12q-116 0 -189 75t-73 200v11q0 122 69 200.5t176 78.5q116 0 178 -80t62 -209q0 -36 -1 -50h-314q20 -88 104 -88q57 0 111 51l84 -100q-84 -89 -207 -89zM193 313h153q-4 50 -24 77t-52 27q-66 0 -77 -104zM194 587v134h152v-134h-152z" />
    <glyph glyph-name="Eogonek" unicode="&#x118;" horiz-adv-x="570" 
d="M52 0v700h482v-158h-304v-115h274v-149h-274v-120h308v-158h-44q-20 -24 -20 -45q0 -33 64 -32v-80q-27 -4 -58 -4q-65 0 -102 21.5t-37 58.5q0 41 40 81h-329z" />
    <glyph glyph-name="eogonek" unicode="&#x119;" horiz-adv-x="535" 
d="M410 177l84 -100q-7 -8 -15 -15.5t-17.5 -17l-15.5 -15.5q-45 -42 -45 -71q0 -19 15 -27.5t49 -7.5v-80q-27 -4 -58 -4q-64 0 -101 21.5t-37 57.5q0 33 32 70h-14q-116 0 -189 75t-73 200v11q0 122 69 200.5t176 78.5q116 0 178 -80t62 -209q0 -41 -1 -50h-314
q20 -88 104 -88q57 0 111 51zM193 313h153q-4 50 -24 77t-52 27q-66 0 -77 -104z" />
    <glyph glyph-name="Ecaron" unicode="&#x11a;" horiz-adv-x="570" 
d="M478 879l-108 -138h-152l-108 138h118l67 -50l67 50h116zM52 0v700h482v-158h-304v-115h274v-149h-274v-120h308v-158h-486z" />
    <glyph glyph-name="ecaron" unicode="&#x11b;" horiz-adv-x="535" 
d="M452 739l-113 -152h-138l-113 152h111l72 -57l72 57h109zM287 -12q-116 0 -189 75t-73 200v11q0 122 69 200.5t176 78.5q116 0 178 -80t62 -209q0 -36 -1 -50h-314q20 -88 104 -88q57 0 111 51l84 -100q-84 -89 -207 -89zM193 313h153q-4 50 -24 77t-52 27
q-66 0 -77 -104z" />
    <glyph glyph-name="Gbreve" unicode="&#x11e;" horiz-adv-x="664" 
d="M357 746q-75 0 -121 35t-53 103h104q16 -42 70 -42t70 42h103q-7 -68 -52.5 -103t-120.5 -35zM368 -12q-146 0 -241 96.5t-95 257.5v14q0 156 95.5 256t241.5 100q136 0 241 -85l-100 -137q-65 58 -137 58q-68 0 -112.5 -54t-44.5 -140v-10q0 -93 44.5 -146t114.5 -53
q49 0 81 21v104h-111v139h280v-334q-117 -87 -257 -87z" />
    <glyph glyph-name="gbreve" unicode="&#x11f;" horiz-adv-x="592" 
d="M272 -153q-124 0 -230 49l49 126q76 -42 163 -42q122 0 122 116v27q-60 -78 -146 -78q-88 0 -145.5 64.5t-57.5 183.5v8q0 120 57 185.5t142 65.5q86 0 148 -75v64h175v-431q0 -132 -63 -195q-70 -68 -214 -68zM288 186q40 0 64 30t24 80v3q0 50 -24 80.5t-64 30.5
t-63.5 -30.5t-23.5 -80.5v-3q0 -50 24 -80t63 -30zM305 584q-74 0 -121 39.5t-53 111.5h101q15 -53 73 -53t73 53h101q-6 -72 -53 -111.5t-121 -39.5z" />
    <glyph glyph-name="Gdotaccent" unicode="&#x120;" horiz-adv-x="664" 
d="M280 749v129h154v-129h-154zM368 -12q-146 0 -241 96.5t-95 257.5v14q0 156 95.5 256t241.5 100q136 0 241 -85l-100 -137q-65 58 -137 58q-68 0 -112.5 -54t-44.5 -140v-10q0 -93 44.5 -146t114.5 -53q49 0 81 21v104h-111v139h280v-334q-117 -87 -257 -87z" />
    <glyph glyph-name="gdotaccent" unicode="&#x121;" horiz-adv-x="592" 
d="M272 -153q-124 0 -230 49l49 126q76 -42 163 -42q122 0 122 116v27q-60 -78 -146 -78q-88 0 -145.5 64.5t-57.5 183.5v8q0 120 57 185.5t142 65.5q86 0 148 -75v64h175v-431q0 -132 -63 -195q-70 -68 -214 -68zM288 186q40 0 64 30t24 80v3q0 50 -24 80.5t-64 30.5
t-63.5 -30.5t-23.5 -80.5v-3q0 -50 24 -80t63 -30zM229 587v134h152v-134h-152z" />
    <glyph glyph-name="Gcommaaccent" unicode="&#x122;" horiz-adv-x="664" 
d="M283 -285l-8 52q40 4 57 18.5t15 41.5h-64v123h147v-102q0 -67 -37.5 -98t-109.5 -35zM368 -12q-146 0 -241 96.5t-95 257.5v14q0 156 95.5 256t241.5 100q136 0 241 -85l-100 -137q-65 58 -137 58q-68 0 -112.5 -54t-44.5 -140v-10q0 -93 44.5 -146t114.5 -53
q49 0 81 21v104h-111v139h280v-334q-117 -87 -257 -87z" />
    <glyph glyph-name="gcommaaccent" unicode="&#x123;" horiz-adv-x="592" 
d="M377 821l8 -52q-40 -4 -57 -18.5t-15 -41.5h64v-123h-147v102q0 67 37.5 98t109.5 35zM272 -153q-124 0 -230 49l49 126q76 -42 163 -42q122 0 122 116v27q-60 -78 -146 -78q-88 0 -145.5 64.5t-57.5 183.5v8q0 120 57 185.5t142 65.5q86 0 148 -75v64h175v-431
q0 -132 -63 -195q-70 -68 -214 -68zM288 186q40 0 64 30t24 80v3q0 50 -24 80.5t-64 30.5t-63.5 -30.5t-23.5 -80.5v-3q0 -50 24 -80t63 -30z" />
    <glyph glyph-name="Hbar" unicode="&#x126;" horiz-adv-x="672" 
d="M4 515v110h52v75h180v-77h200v77h180v-75h53v-110h-53v-515h-180v270h-200v-270h-180v515h-52zM236 433h200v84h-200v-84z" />
    <glyph glyph-name="hbar" unicode="&#x127;" horiz-adv-x="561" 
d="M344 588h-125v-118q57 82 143 82q75 0 117.5 -48t42.5 -131v-373h-176v319q0 37 -17 57t-45 20q-29 0 -47 -20t-18 -57v-319h-176v587h-52v91h52v46h176v-46h125v-90z" />
    <glyph glyph-name="Imacron" unicode="&#x12a;" horiz-adv-x="291" 
d="M55 0v700h180v-700h-180zM-32 747v110h356v-110h-356z" />
    <glyph glyph-name="imacron" unicode="&#x12b;" horiz-adv-x="269" 
d="M47 0v541h175v-541h-175zM-33 589v106h336v-106h-336z" />
    <glyph glyph-name="Ibreve" unicode="&#x12c;" horiz-adv-x="291" 
d="M55 0v700h180v-700h-180zM146 739q-75 0 -121 35t-53 103h104q16 -42 70 -42t70 42h103q-7 -68 -52.5 -103t-120.5 -35z" />
    <glyph glyph-name="ibreve" unicode="&#x12d;" horiz-adv-x="269" 
d="M47 0v541h175v-541h-175zM135 580q-74 0 -121 39.5t-53 111.5h101q15 -53 73 -53t73 53h101q-6 -72 -53 -111.5t-121 -39.5z" />
    <glyph glyph-name="Iogonek" unicode="&#x12e;" horiz-adv-x="291" 
d="M55 0v700h180v-700h-31q-20 -24 -20 -45q0 -33 64 -32v-80q-27 -4 -58 -4q-65 0 -102 21.5t-37 58.5q0 41 40 81h-36z" />
    <glyph glyph-name="iogonek" unicode="&#x12f;" horiz-adv-x="269" 
d="M47 0v541h175v-541h-31q-20 -24 -20 -45q0 -33 64 -32v-80q-27 -4 -58 -4q-65 0 -102 21.5t-37 58.5q0 41 40 81h-31zM44 587v137h181v-137h-181z" />
    <glyph glyph-name="Idotaccent" unicode="&#x130;" horiz-adv-x="291" 
d="M55 0v700h180v-700h-180zM69 742v129h154v-129h-154z" />
    <glyph glyph-name="dotlessi" unicode="&#x131;" horiz-adv-x="269" 
d="M47 0v541h175v-541h-175z" />
    <glyph glyph-name="Kcommaaccent" unicode="&#x136;" horiz-adv-x="636" 
d="M246 -278l-8 52q40 4 57 18.5t15 41.5h-64v123h147v-102q0 -67 -37.5 -98t-109.5 -35zM52 0v700h180v-277l193 277h207l-217 -298l224 -402h-210l-141 255l-56 -73v-182h-180z" />
    <glyph glyph-name="kcommaaccent" unicode="&#x137;" horiz-adv-x="535" 
d="M202 -279l-8 52q40 4 57 18.5t15 41.5h-64v123h147v-102q0 -67 -37.5 -98t-109.5 -35zM43 0v724h176v-364l121 181h194l-155 -216l158 -325h-193l-86 187l-39 -53v-134h-176z" />
    <glyph glyph-name="Lacute" unicode="&#x139;" horiz-adv-x="526" 
d="M91 741l98 149l166 -51l-134 -98h-130zM52 0v700h180v-538h275v-162h-455z" />
    <glyph glyph-name="lacute" unicode="&#x13a;" horiz-adv-x="269" 
d="M68 756l98 149l166 -51l-134 -98h-130zM47 0v724h175v-724h-175z" />
    <glyph glyph-name="Lcommaaccent" unicode="&#x13b;" horiz-adv-x="526" 
d="M206 -279l-8 52q40 4 57 18.5t15 41.5h-64v123h147v-102q0 -67 -37.5 -98t-109.5 -35zM52 0v700h180v-538h275v-162h-455z" />
    <glyph glyph-name="lcommaaccent" unicode="&#x13c;" horiz-adv-x="269" 
d="M63 -279l-8 52q40 4 57 18.5t15 41.5h-64v123h147v-102q0 -67 -37.5 -98t-109.5 -35zM47 0v724h175v-724h-175z" />
    <glyph glyph-name="Lcaron" unicode="&#x13d;" horiz-adv-x="526" 
d="M278 507l11 194h116v-3l-57 -191h-70zM52 0v700h180v-538h275v-162h-455z" />
    <glyph glyph-name="lcaron" unicode="&#x13e;" horiz-adv-x="269" 
d="M260 578l11 194h116v-3l-57 -191h-70zM47 0v724h175v-724h-175z" />
    <glyph glyph-name="Ldot" unicode="&#x13f;" horiz-adv-x="526" 
d="M338 320v149h144v-149h-144zM52 0v700h180v-538h275v-162h-455z" />
    <glyph glyph-name="ldot" unicode="&#x140;" horiz-adv-x="384" 
d="M264 297v148h125v-148h-125zM47 0v724h175v-724h-175z" />
    <glyph glyph-name="Lslash" unicode="&#x141;" horiz-adv-x="564" 
d="M391 364l-125 -57v-145h276v-162h-455v226l-64 -28v166l64 28v308h179v-227l125 57v-166z" />
    <glyph glyph-name="lslash" unicode="&#x142;" horiz-adv-x="350" 
d="M332 360l-69 -33v-327h-175v243l-70 -33v161l70 33v320h175v-236l69 34v-162z" />
    <glyph glyph-name="Nacute" unicode="&#x143;" horiz-adv-x="682" 
d="M272 741l98 149l166 -51l-134 -98h-130zM52 0v700h169l233 -352v352h177v-700h-160l-242 367v-367h-177z" />
    <glyph glyph-name="nacute" unicode="&#x144;" horiz-adv-x="561" 
d="M215 587l95 169l159 -52l-136 -117h-118zM43 0v541h176v-72q58 83 143 83q75 0 117.5 -48t42.5 -131v-373h-176v319q0 37 -17 57t-45 20q-29 0 -47 -20t-18 -57v-319h-176z" />
    <glyph glyph-name="Ncommaaccent" unicode="&#x145;" horiz-adv-x="682" 
d="M268 -278l-8 52q40 4 57 18.5t15 41.5h-64v123h147v-102q0 -67 -37.5 -98t-109.5 -35zM52 0v700h169l233 -352v352h177v-700h-160l-242 367v-367h-177z" />
    <glyph glyph-name="ncommaaccent" unicode="&#x146;" horiz-adv-x="561" 
d="M209 -279l-8 52q40 4 57 18.5t15 41.5h-64v123h147v-102q0 -67 -37.5 -98t-109.5 -35zM43 0v541h176v-72q58 83 143 83q75 0 117.5 -48t42.5 -131v-373h-176v319q0 37 -17 57t-45 20q-29 0 -47 -20t-18 -57v-319h-176z" />
    <glyph glyph-name="Ncaron" unicode="&#x147;" horiz-adv-x="682" 
d="M524 879l-108 -138h-152l-108 138h118l67 -50l67 50h116zM52 0v700h169l233 -352v352h177v-700h-160l-242 367v-367h-177z" />
    <glyph glyph-name="ncaron" unicode="&#x148;" horiz-adv-x="561" 
d="M464 739l-113 -152h-138l-113 152h111l72 -57l72 57h109zM43 0v541h176v-72q58 83 143 83q75 0 117.5 -48t42.5 -131v-373h-176v319q0 37 -17 57t-45 20q-29 0 -47 -20t-18 -57v-319h-176z" />
    <glyph glyph-name="Omacron" unicode="&#x14c;" horiz-adv-x="713" 
d="M178 754v110h356v-110h-356zM356 -13q-142 0 -233 99t-91 256v15q0 156 92 256t233 100q142 0 233 -99t91 -256v-15q0 -156 -92 -256t-233 -100zM357 150q64 0 102 52t38 142v11q0 90 -39 142.5t-102 52.5t-101.5 -52t-38.5 -142v-11q0 -90 39 -142.5t102 -52.5z" />
    <glyph glyph-name="omacron" unicode="&#x14d;" horiz-adv-x="576" 
d="M120 593v106h336v-106h-336zM287 -13q-114 0 -187.5 77.5t-73.5 197.5v15q0 120 74.5 198t188.5 78t188 -77.5t74 -197.5v-15q0 -120 -74.5 -198t-189.5 -78zM289 138q41 0 65.5 35t24.5 92v9q0 57 -25 92.5t-66 35.5q-42 0 -66 -35t-24 -92v-9q0 -57 25 -92.5t66 -35.5z
" />
    <glyph glyph-name="Obreve" unicode="&#x14e;" horiz-adv-x="713" 
d="M356 746q-75 0 -121 35t-53 103h104q16 -42 70 -42t70 42h103q-7 -68 -52.5 -103t-120.5 -35zM356 -13q-142 0 -233 99t-91 256v15q0 156 92 256t233 100q142 0 233 -99t91 -256v-15q0 -156 -92 -256t-233 -100zM357 150q64 0 102 52t38 142v11q0 90 -39 142.5t-102 52.5
t-101.5 -52t-38.5 -142v-11q0 -90 39 -142.5t102 -52.5z" />
    <glyph glyph-name="obreve" unicode="&#x14f;" horiz-adv-x="576" 
d="M287 -13q-114 0 -187.5 77.5t-73.5 197.5v15q0 120 74.5 198t188.5 78t188 -77.5t74 -197.5v-15q0 -120 -74.5 -198t-189.5 -78zM289 138q41 0 65.5 35t24.5 92v9q0 57 -25 92.5t-66 35.5q-42 0 -66 -35t-24 -92v-9q0 -57 25 -92.5t66 -35.5zM288 584q-74 0 -121 39.5
t-53 111.5h101q15 -53 73 -53t73 53h101q-6 -72 -53 -111.5t-121 -39.5z" />
    <glyph glyph-name="Ohungarumlaut" unicode="&#x150;" horiz-adv-x="713" 
d="M356 -13q-142 0 -233 99t-91 256v15q0 156 92 256t233 100q142 0 233 -99t91 -256v-15q0 -156 -92 -256t-233 -100zM357 150q64 0 102 52t38 142v11q0 90 -39 142.5t-102 52.5t-101.5 -52t-38.5 -142v-11q0 -90 39 -142.5t102 -52.5zM375 748l56 89l-116 -89h-117l94 149
l146 -48l31 48l152 -50l-129 -99h-117z" />
    <glyph glyph-name="ohungarumlaut" unicode="&#x151;" horiz-adv-x="576" 
d="M287 -13q-114 0 -187.5 77.5t-73.5 197.5v15q0 120 74.5 198t188.5 78t188 -77.5t74 -197.5v-15q0 -120 -74.5 -198t-189.5 -78zM136 587l91 169l142 -50l27 50l148 -51l-131 -118h-108l58 108l-119 -108h-108zM289 138q41 0 65.5 35t24.5 92v9q0 57 -25 92.5t-66 35.5
q-42 0 -66 -35t-24 -92v-9q0 -57 25 -92.5t66 -35.5z" />
    <glyph glyph-name="OE" unicode="&#x152;" horiz-adv-x="928" 
d="M386 0q-167 0 -260.5 92.5t-93.5 249.5v12q0 158 94.5 252t261.5 94h504v-158h-288v-115h258v-149h-258v-120h292v-158h-510zM381 159h44v382h-44q-76 0 -120.5 -47.5t-44.5 -138.5v-9q0 -91 44.5 -139t120.5 -48z" />
    <glyph glyph-name="oe" unicode="&#x153;" horiz-adv-x="886" 
d="M281 -13q-109 0 -182 78t-73 197v15q0 119 74 197.5t184 78.5q109 0 175 -77q63 77 165 77q114 0 175.5 -80t61.5 -209q0 -36 -1 -50h-314q20 -88 105 -88q57 0 110 51l84 -100q-84 -89 -205 -89q-115 0 -183 77q-67 -78 -176 -78zM544 313h153q-4 50 -24 77t-52 27
q-66 0 -77 -104zM287 138q41 0 64.5 35t23.5 92v9q0 57 -24.5 92.5t-64.5 35.5q-41 0 -64.5 -35t-23.5 -92v-9q0 -56 24.5 -92t64.5 -36z" />
    <glyph glyph-name="Racute" unicode="&#x154;" horiz-adv-x="627" 
d="M52 0v700h275q141 0 210 -71q61 -61 61 -164v-5q0 -144 -125 -206l144 -254h-203l-119 217h-64v-217h-179zM231 360h89q46 0 71.5 24.5t25.5 66.5v2q0 44 -26 67t-72 23h-88v-183zM236 741l98 149l166 -51l-134 -98h-130z" />
    <glyph glyph-name="racute" unicode="&#x155;" horiz-adv-x="377" 
d="M133 583l95 169l159 -52l-136 -117h-118zM43 0v541h176v-98q43 111 144 106v-192h-12q-132 0 -132 -159v-198h-176z" />
    <glyph glyph-name="Rcommaaccent" unicode="&#x156;" horiz-adv-x="627" 
d="M52 0v700h275q141 0 210 -71q61 -61 61 -164v-5q0 -144 -125 -206l144 -254h-203l-119 217h-64v-217h-179zM231 360h89q46 0 71.5 24.5t25.5 66.5v2q0 44 -26 67t-72 23h-88v-183zM234 -278l-8 52q40 4 57 18.5t15 41.5h-64v123h147v-102q0 -67 -37.5 -98t-109.5 -35z
" />
    <glyph glyph-name="rcommaaccent" unicode="&#x157;" horiz-adv-x="377" 
d="M64 -279l-8 52q40 4 57 18.5t15 41.5h-64v123h147v-102q0 -67 -37.5 -98t-109.5 -35zM43 0v541h176v-98q43 111 144 106v-192h-12q-132 0 -132 -159v-198h-176z" />
    <glyph glyph-name="Rcaron" unicode="&#x158;" horiz-adv-x="627" 
d="M52 0v700h275q141 0 210 -71q61 -61 61 -164v-5q0 -144 -125 -206l144 -254h-203l-119 217h-64v-217h-179zM489 879l-108 -138h-152l-108 138h118l67 -50l67 50h116zM231 360h89q46 0 71.5 24.5t25.5 66.5v2q0 44 -26 67t-72 23h-88v-183z" />
    <glyph glyph-name="rcaron" unicode="&#x159;" horiz-adv-x="377" 
d="M381 735l-113 -152h-138l-113 152h111l72 -57l72 57h109zM43 0v541h176v-98q43 111 144 106v-192h-12q-132 0 -132 -159v-198h-176z" />
    <glyph glyph-name="Sacute" unicode="&#x15a;" horiz-adv-x="566" 
d="M286 -10q-166 0 -285 103l96 131q96 -79 190 -79q35 0 54 14t19 37v1q0 21 -21.5 37t-81.5 37q-114 39 -169.5 85.5t-55.5 134.5v3q0 96 68 156t182 60q145 0 250 -85l-91 -134q-83 64 -163 64q-30 0 -47 -13t-17 -33v-1q0 -23 22 -39t89 -41q109 -35 162.5 -83.5
t53.5 -132.5v-2q0 -101 -70.5 -160.5t-184.5 -59.5zM217 748l98 149l166 -51l-134 -98h-130z" />
    <glyph glyph-name="sacute" unicode="&#x15b;" horiz-adv-x="453" 
d="M164 587l95 169l159 -52l-136 -117h-118zM229 -11q-126 0 -224 73l66 117q85 -59 157 -59q44 0 44 30v2q0 15 -16.5 24.5t-62.5 27.5q-83 31 -124 67.5t-41 103.5v2q0 81 55.5 127.5t145.5 46.5q109 0 198 -58l-64 -119q-73 46 -133 46q-41 0 -41 -28v-2q0 -14 16.5 -24
t63.5 -29q83 -31 123.5 -68t40.5 -101v-2q0 -83 -55.5 -130t-148.5 -47z" />
    <glyph glyph-name="Scedilla" unicode="&#x15e;" horiz-adv-x="566" 
d="M285 -159l-144 54l73 101q-122 17 -213 97l96 131q96 -79 190 -79q35 0 54 14t19 37v1q0 21 -21.5 37t-81.5 37q-114 39 -169.5 85.5t-55.5 134.5v3q0 96 68 156t182 60q145 0 250 -85l-91 -134q-83 64 -163 64q-30 0 -47 -13t-17 -33v-1q0 -23 22 -39t89 -41
q109 -35 162.5 -83.5t53.5 -132.5v-2q0 -89 -55.5 -146.5t-149.5 -69.5z" />
    <glyph glyph-name="scedilla" unicode="&#x15f;" horiz-adv-x="453" 
d="M226 -159l-144 54l73 101q-83 16 -150 66l66 117q85 -59 157 -59q44 0 44 30v2q0 15 -16.5 24.5t-62.5 27.5q-83 31 -124 67.5t-41 103.5v2q0 81 55.5 127.5t145.5 46.5q109 0 198 -58l-64 -119q-73 46 -133 46q-41 0 -41 -28v-2q0 -14 16.5 -24t63.5 -29
q83 -31 123.5 -68t40.5 -101v-2q0 -72 -41.5 -117t-114.5 -56z" />
    <glyph glyph-name="Scaron" unicode="&#x160;" horiz-adv-x="566" 
d="M286 -10q-166 0 -285 103l96 131q96 -79 190 -79q35 0 54 14t19 37v1q0 21 -21.5 37t-81.5 37q-114 39 -169.5 85.5t-55.5 134.5v3q0 96 68 156t182 60q145 0 250 -85l-91 -134q-83 64 -163 64q-30 0 -47 -13t-17 -33v-1q0 -23 22 -39t89 -41q109 -35 162.5 -83.5
t53.5 -132.5v-2q0 -101 -70.5 -160.5t-184.5 -59.5zM470 886l-108 -138h-152l-108 138h118l67 -50l67 50h116z" />
    <glyph glyph-name="scaron" unicode="&#x161;" horiz-adv-x="453" 
d="M413 739l-113 -152h-138l-113 152h111l72 -57l72 57h109zM229 -11q-126 0 -224 73l66 117q85 -59 157 -59q44 0 44 30v2q0 15 -16.5 24.5t-62.5 27.5q-83 31 -124 67.5t-41 103.5v2q0 81 55.5 127.5t145.5 46.5q109 0 198 -58l-64 -119q-73 46 -133 46q-41 0 -41 -28v-2
q0 -14 16.5 -24t63.5 -29q83 -31 123.5 -68t40.5 -101v-2q0 -83 -55.5 -130t-148.5 -47z" />
    <glyph glyph-name="Tcommaaccent" unicode="&#x162;" horiz-adv-x="566" 
d="M210 -279l-8 52q40 4 57 18.5t15 41.5h-64v123h147v-102q0 -67 -37.5 -98t-109.5 -35zM193 0v538h-173v162h526v-162h-173v-538h-180z" />
    <glyph glyph-name="tcommaaccent" unicode="&#x163;" horiz-adv-x="377" 
d="M130 -283l-8 52q40 4 57 18.5t15 41.5h-64v123h147v-102q0 -67 -37.5 -98t-109.5 -35zM232 -10q-161 0 -161 157v253h-54v141h54v135h175v-135h106v-141h-106v-213q0 -45 45 -45q29 0 60 14v-138q-51 -28 -119 -28z" />
    <glyph glyph-name="Tcaron" unicode="&#x164;" horiz-adv-x="566" 
d="M467 879l-108 -138h-152l-108 138h118l67 -50l67 50h116zM193 0v538h-173v162h526v-162h-173v-538h-180z" />
    <glyph glyph-name="tcaron" unicode="&#x165;" horiz-adv-x="377" 
d="M286 578l11 194h116v-3l-57 -191h-70zM232 -10q-161 0 -161 157v253h-54v141h54v135h175v-135h106v-141h-106v-213q0 -45 45 -45q29 0 60 14v-138q-51 -28 -119 -28z" />
    <glyph glyph-name="Umacron" unicode="&#x16a;" horiz-adv-x="659" 
d="M150 747v110h356v-110h-356zM328 -12q-133 0 -208 72t-75 217v423h181v-425q0 -61 27.5 -92.5t75.5 -31.5q49 0 76 30t27 91v428h182v-420q0 -147 -76 -219.5t-210 -72.5z" />
    <glyph glyph-name="umacron" unicode="&#x16b;" horiz-adv-x="561" 
d="M199 -11q-75 0 -117.5 48t-42.5 131v373h176v-319q0 -37 17 -57t45 -20q29 0 47 20t18 57v319h176v-541h-176v71q-57 -82 -143 -82zM110 589v106h336v-106h-336z" />
    <glyph glyph-name="Ubreve" unicode="&#x16c;" horiz-adv-x="659" 
d="M329 732q-75 0 -121 35t-53 103h104q16 -42 70 -42t70 42h103q-7 -68 -52.5 -103t-120.5 -35zM328 -12q-133 0 -208 72t-75 217v423h181v-425q0 -61 27.5 -92.5t75.5 -31.5q49 0 76 30t27 91v428h182v-420q0 -147 -76 -219.5t-210 -72.5z" />
    <glyph glyph-name="ubreve" unicode="&#x16d;" horiz-adv-x="561" 
d="M199 -11q-75 0 -117.5 48t-42.5 131v373h176v-319q0 -37 17 -57t45 -20q29 0 47 20t18 57v319h176v-541h-176v71q-57 -82 -143 -82zM278 580q-74 0 -121 39.5t-53 111.5h101q15 -53 73 -53t73 53h101q-6 -72 -53 -111.5t-121 -39.5z" />
    <glyph glyph-name="Uring" unicode="&#x16e;" horiz-adv-x="659" 
d="M328 -12q-133 0 -208 72t-75 217v423h181v-425q0 -61 27.5 -92.5t75.5 -31.5q49 0 76 30t27 91v428h182v-420q0 -147 -76 -219.5t-210 -72.5zM328 724q-54 0 -90.5 33t-36.5 82t36.5 81.5t90.5 32.5t90.5 -32.5t36.5 -81.5t-36.5 -82t-90.5 -33zM328 781q28 0 45.5 16.5
t17.5 41.5t-17.5 41.5t-45.5 16.5t-45.5 -16.5t-17.5 -41.5t17.5 -41.5t45.5 -16.5z" />
    <glyph glyph-name="uring" unicode="&#x16f;" horiz-adv-x="561" 
d="M278 574q-50 0 -85 34t-35 83t35 82.5t85 33.5t85 -33.5t35 -82.5t-35 -83t-85 -34zM278 629q25 0 42.5 18t17.5 44t-17.5 44t-42.5 18t-42.5 -18t-17.5 -44t17.5 -44t42.5 -18zM199 -11q-75 0 -117.5 48t-42.5 131v373h176v-319q0 -37 17 -57t45 -20q29 0 47 20t18 57
v319h176v-541h-176v71q-57 -82 -143 -82z" />
    <glyph glyph-name="Uhungarumlaut" unicode="&#x170;" horiz-adv-x="659" 
d="M328 -12q-133 0 -208 72t-75 217v423h181v-425q0 -61 27.5 -92.5t75.5 -31.5q49 0 76 30t27 91v428h182v-420q0 -147 -76 -219.5t-210 -72.5zM344 741l56 89l-116 -89h-117l94 149l146 -48l31 48l152 -50l-129 -99h-117z" />
    <glyph glyph-name="uhungarumlaut" unicode="&#x171;" horiz-adv-x="561" 
d="M199 -11q-75 0 -117.5 48t-42.5 131v373h176v-319q0 -37 17 -57t45 -20q29 0 47 20t18 57v319h176v-541h-176v71q-57 -82 -143 -82zM124 583l91 169l142 -50l27 50l148 -51l-131 -118h-108l58 108l-119 -108h-108z" />
    <glyph glyph-name="Uogonek" unicode="&#x172;" horiz-adv-x="659" 
d="M426 -77v-80q-27 -4 -58 -4q-65 0 -102 21.5t-37 58.5q0 38 33 74q-103 16 -160 87t-57 197v423h181v-425q0 -61 27.5 -92.5t75.5 -31.5q49 0 76 30t27 91v428h182v-420q0 -134 -63.5 -205.5t-175.5 -83.5q-13 -18 -13 -36q0 -33 64 -32z" />
    <glyph glyph-name="uogonek" unicode="&#x173;" horiz-adv-x="561" 
d="M199 -11q-75 0 -117.5 48t-42.5 131v373h176v-319q0 -37 17 -57t45 -20q29 0 47 20t18 57v319h176v-541h-36q-20 -24 -20 -45q0 -33 64 -32v-80q-27 -4 -58 -4q-65 0 -102 21.5t-37 58.5q0 41 40 81h-27v71q-57 -82 -143 -82z" />
    <glyph glyph-name="Wcircumflex" unicode="&#x174;" horiz-adv-x="967" 
d="M205 -4l-195 704h190l98 -405l109 407h155l110 -407l98 405h186l-195 -704h-165l-113 387l-113 -387h-165zM299 741l108 138h152l108 -138h-118l-67 50l-67 -50h-116z" />
    <glyph glyph-name="wcircumflex" unicode="&#x175;" horiz-adv-x="763" 
d="M199 583l113 152h138l113 -152h-111l-72 57l-72 -57h-109zM153 -4l-143 545h172l60 -274l68 276h143l69 -277l61 275h171l-145 -545h-154l-74 274l-75 -274h-153z" />
    <glyph glyph-name="Ycircumflex" unicode="&#x176;" horiz-adv-x="626" 
d="M223 0v262l-225 438h199l117 -253l118 253h196l-225 -436v-264h-180zM128 741l108 138h152l108 -138h-118l-67 50l-67 -50h-116z" />
    <glyph glyph-name="ycircumflex" unicode="&#x177;" horiz-adv-x="549" 
d="M279 222l84 319h178l-171 -526q-30 -92 -72 -130.5t-116 -38.5q-75 0 -143 38l45 125q39 -22 68 -22q27 0 39 21l-183 533h182zM95 583l113 152h138l113 -152h-111l-72 57l-72 -57h-109z" />
    <glyph glyph-name="Ydieresis" unicode="&#x178;" horiz-adv-x="626" 
d="M223 0v262l-225 438h199l117 -253l118 253h196l-225 -436v-264h-180zM337 742v129h149v-129h-149zM138 742v129h149v-129h-149z" />
    <glyph glyph-name="Zacute" unicode="&#x179;" horiz-adv-x="593" 
d="M34 0v135l291 408h-282v157h518v-135l-292 -408h292v-157h-527zM233 741l98 149l166 -51l-134 -98h-130z" />
    <glyph glyph-name="zacute" unicode="&#x17a;" horiz-adv-x="486" 
d="M182 583l95 169l159 -52l-136 -117h-118zM26 0v118l215 281h-208v142h430v-118l-216 -281h216v-142h-437z" />
    <glyph glyph-name="Zdotaccent" unicode="&#x17b;" horiz-adv-x="593" 
d="M226 742v129h154v-129h-154zM34 0v135l291 408h-282v157h518v-135l-292 -408h292v-157h-527z" />
    <glyph glyph-name="zdotaccent" unicode="&#x17c;" horiz-adv-x="486" 
d="M26 0v118l215 281h-208v142h430v-118l-216 -281h216v-142h-437zM173 583v134h152v-134h-152z" />
    <glyph glyph-name="Zcaron" unicode="&#x17d;" horiz-adv-x="593" 
d="M487 879l-108 -138h-152l-108 138h118l67 -50l67 50h116zM34 0v135l291 408h-282v157h518v-135l-292 -408h292v-157h-527z" />
    <glyph glyph-name="zcaron" unicode="&#x17e;" horiz-adv-x="486" 
d="M431 735l-113 -152h-138l-113 152h111l72 -57l72 57h109zM26 0v118l215 281h-208v142h430v-118l-216 -281h216v-142h-437z" />
    <glyph glyph-name="Aringacute" unicode="&#x1fa;" horiz-adv-x="682" 
d="M4 0l234 672q-24 29 -24 68q0 49 36.5 81.5t90.5 32.5t90.5 -32.5t36.5 -81.5q0 -38 -24 -68l235 -672h-189l-41 126h-220l-40 -126h-185zM271 876l100 136l166 -51l-141 -85h-125zM274 270h130l-65 205zM341 682q28 0 46 16.5t18 41.5t-18 41.5t-46 16.5t-45.5 -16.5
t-17.5 -41.5t17.5 -41.5t45.5 -16.5z" />
    <glyph glyph-name="aringacute" unicode="&#x1fb;" horiz-adv-x="529" 
d="M200 848l100 143l156 -50l-136 -93h-120zM178 -11q-69 0 -113.5 43.5t-44.5 120.5v7q0 84 50 127.5t135 43.5q63 0 112 -21v13q0 84 -94 84q-55 0 -128 -30l-40 130q93 42 197 42q123 0 183 -60q55 -55 55 -165v-324h-174v55q-52 -66 -138 -66zM243 104q33 0 54 21.5
t21 57.5v40q-28 13 -61 13t-51.5 -18t-18.5 -49v-4q0 -28 15.5 -44t40.5 -17zM267 586q-50 0 -85 34t-35 83t35 82.5t85 33.5t85 -33.5t35 -82.5t-35 -83t-85 -34zM267 641q25 0 42.5 18t17.5 44t-17.5 44t-42.5 18t-42.5 -18t-17.5 -44t17.5 -44t42.5 -18z" />
    <glyph glyph-name="AEacute" unicode="&#x1fc;" horiz-adv-x="915" 
d="M457 741l98 149l166 -51l-134 -98h-130zM-5 0l307 700h577v-158h-288v-115h259v-149h-259v-120h293v-158h-470v126h-186l-53 -126h-180zM289 270h125v275h-12z" />
    <glyph glyph-name="aeacute" unicode="&#x1fd;" horiz-adv-x="824" 
d="M342 583l95 169l159 -52l-136 -117h-118zM197 -11q-78 0 -127.5 43.5t-49.5 123.5v5q0 84 50 127t135 43q63 0 112 -21v13q0 84 -94 84q-60 0 -128 -32l-40 133q93 41 196 41q108 0 163 -58q60 62 148 62q113 0 175 -80.5t62 -208.5q0 -3 -0.5 -22.5t-0.5 -27.5h-315
q20 -88 105 -88q57 0 110 51l84 -100q-84 -89 -206 -89q-123 0 -193 84q-83 -83 -186 -83zM481 313h153q-3 50 -23 77t-53 27q-66 0 -77 -104zM247 106q47 0 89 47q-11 29 -16 70q-32 13 -62 13q-33 0 -52 -18t-19 -49v-4q0 -27 16.5 -43t43.5 -16z" />
    <glyph glyph-name="Oslashacute" unicode="&#x1fe;" horiz-adv-x="713" 
d="M561 705h124l-82 -108q78 -97 78 -239v-15q0 -156 -92 -256t-233 -100q-98 0 -173 49l-31 -41h-123l81 107q-78 99 -78 240v15q0 156 92 256t233 100q95 0 172 -49zM213 345q0 -55 13 -94l205 279q-32 24 -75 24q-64 0 -103.5 -53t-39.5 -144v-12zM358 146q64 0 103 53
t39 144v12q0 51 -14 93l-204 -278q33 -24 76 -24zM287 748l98 149l166 -51l-134 -98h-130z" />
    <glyph glyph-name="oslashacute" unicode="&#x1ff;" horiz-adv-x="576" 
d="M450 546h113l-71 -89q59 -75 59 -179v-15q0 -120 -74.5 -198t-189.5 -78q-77 0 -137 37l-24 -29h-113l71 88q-58 74 -58 179v15q0 120 74.5 198t188.5 78q75 0 137 -38zM221 587l95 169l159 -52l-136 -117h-118zM191 265q0 -30 5 -47l137 178q-21 13 -45 13
q-44 0 -70.5 -37t-26.5 -96v-11zM289 131q44 0 70.5 37t26.5 96v11q0 23 -5 46l-137 -178q20 -12 45 -12z" />
    <glyph glyph-name="Scommaaccent" unicode="&#x218;" horiz-adv-x="566" 
d="M209 -285l-8 52q40 4 57 18.5t15 41.5h-64v123h147v-102q0 -67 -37.5 -98t-109.5 -35zM286 -10q-166 0 -285 103l96 131q96 -79 190 -79q35 0 54 14t19 37v1q0 21 -21.5 37t-81.5 37q-114 39 -169.5 85.5t-55.5 134.5v3q0 96 68 156t182 60q145 0 250 -85l-91 -134
q-83 64 -163 64q-30 0 -47 -13t-17 -33v-1q0 -23 22 -39t89 -41q109 -35 162.5 -83.5t53.5 -132.5v-2q0 -101 -70.5 -160.5t-184.5 -59.5z" />
    <glyph glyph-name="scommaaccent" unicode="&#x219;" horiz-adv-x="453" 
d="M155 -283l-8 52q40 4 57 18.5t15 41.5h-64v123h147v-102q0 -67 -37.5 -98t-109.5 -35zM229 -11q-126 0 -224 73l66 117q85 -59 157 -59q44 0 44 30v2q0 15 -16.5 24.5t-62.5 27.5q-83 31 -124 67.5t-41 103.5v2q0 81 55.5 127.5t145.5 46.5q109 0 198 -58l-64 -119
q-73 46 -133 46q-41 0 -41 -28v-2q0 -14 16.5 -24t63.5 -29q83 -31 123.5 -68t40.5 -101v-2q0 -83 -55.5 -130t-148.5 -47z" />
    <glyph glyph-name="schwa" unicode="&#x259;" horiz-adv-x="535" 
d="M248 553q116 0 189 -75t73 -200v-11q0 -122 -69 -200.5t-176 -78.5q-116 0 -178 80t-62 209q0 36 1 50h314q-20 88 -104 88q-57 0 -111 -51l-84 100q84 89 207 89zM342 228h-153q4 -50 24 -77t52 -27q66 0 77 104z" />
    <glyph glyph-name="circumflex" unicode="&#x2c6;" 
d="M68 583l113 152h138l113 -152h-111l-72 57l-72 -57h-109z" />
    <glyph glyph-name="caron" unicode="&#x2c7;" 
d="M432 735l-113 -152h-138l-113 152h111l72 -57l72 57h109z" />
    <glyph glyph-name="breve" unicode="&#x2d8;" 
d="M250 580q-74 0 -121 39.5t-53 111.5h101q15 -53 73 -53t73 53h101q-6 -72 -53 -111.5t-121 -39.5z" />
    <glyph glyph-name="dotaccent" unicode="&#x2d9;" 
d="M174 583v134h152v-134h-152z" />
    <glyph glyph-name="ring" unicode="&#x2da;" 
d="M250 582q-50 0 -85 34t-35 83t35 82.5t85 33.5t85 -33.5t35 -82.5t-35 -83t-85 -34zM250 637q25 0 42.5 18t17.5 44t-17.5 44t-42.5 18t-42.5 -18t-17.5 -44t17.5 -44t42.5 -18z" />
    <glyph glyph-name="ogonek" unicode="&#x2db;" 
d="M360 -77v-80q-27 -4 -58 -4q-65 0 -102 21.5t-37 58.5q0 46 55 95l109 -2q-31 -34 -31 -57q0 -33 64 -32z" />
    <glyph glyph-name="tilde" unicode="&#x2dc;" 
d="M331 582q-30 0 -84 20q-44 17 -58 17q-18 0 -26.5 -9.5t-17.5 -33.5l-84 21q13 71 38.5 104.5t69.5 33.5q30 0 84 -20q44 -17 58 -17q17 0 26 9.5t18 33.5l84 -21q-13 -71 -38.5 -104.5t-69.5 -33.5z" />
    <glyph glyph-name="hungarumlaut" unicode="&#x2dd;" 
d="M50 583l91 169l142 -50l27 50l148 -51l-131 -118h-108l58 108l-119 -108h-108z" />
    <glyph glyph-name="commaaccent" unicode="&#x326;" 
d="M177 -279l-8 52q40 4 57 18.5t15 41.5h-64v123h147v-102q0 -67 -37.5 -98t-109.5 -35z" />
    <glyph glyph-name="Wgrave" unicode="&#x1e80;" horiz-adv-x="967" 
d="M551 741h-129l-135 98l167 51zM205 -4l-195 704h190l98 -405l109 407h155l110 -407l98 405h186l-195 -704h-165l-113 387l-113 -387h-165z" />
    <glyph glyph-name="wgrave" unicode="&#x1e81;" horiz-adv-x="763" 
d="M153 -4l-143 545h172l60 -274l68 276h143l69 -277l61 275h171l-145 -545h-154l-74 274l-75 -274h-153zM328 583l-136 117l159 52l95 -169h-118z" />
    <glyph glyph-name="Wacute" unicode="&#x1e82;" horiz-adv-x="967" 
d="M413 741l98 149l166 -51l-134 -98h-130zM205 -4l-195 704h190l98 -405l109 407h155l110 -407l98 405h186l-195 -704h-165l-113 387l-113 -387h-165z" />
    <glyph glyph-name="wacute" unicode="&#x1e83;" horiz-adv-x="763" 
d="M314 583l95 169l159 -52l-136 -117h-118zM153 -4l-143 545h172l60 -274l68 276h143l69 -277l61 275h171l-145 -545h-154l-74 274l-75 -274h-153z" />
    <glyph glyph-name="Wdieresis" unicode="&#x1e84;" horiz-adv-x="967" 
d="M507 742v129h149v-129h-149zM308 742v129h149v-129h-149zM205 -4l-195 704h190l98 -405l109 407h155l110 -407l98 405h186l-195 -704h-165l-113 387l-113 -387h-165z" />
    <glyph glyph-name="wdieresis" unicode="&#x1e85;" horiz-adv-x="763" 
d="M401 583v134h147v-134h-147zM212 583v134h147v-134h-147zM153 -4l-143 545h172l60 -274l68 276h143l69 -277l61 275h171l-145 -545h-154l-74 274l-75 -274h-153z" />
    <glyph glyph-name="Ygrave" unicode="&#x1ef2;" horiz-adv-x="626" 
d="M223 0v262l-225 438h199l117 -253l118 253h196l-225 -436v-264h-180zM381 741h-129l-135 98l167 51z" />
    <glyph glyph-name="ygrave" unicode="&#x1ef3;" horiz-adv-x="549" 
d="M279 222l84 319h178l-171 -526q-30 -92 -72 -130.5t-116 -38.5q-75 0 -143 38l45 125q39 -22 68 -22q27 0 39 21l-183 533h182zM225 583l-136 117l159 52l95 -169h-118z" />
    <glyph glyph-name="enspace" unicode="&#x2002;" 
 />
    <glyph glyph-name="emspace" unicode="&#x2003;" horiz-adv-x="1000" 
 />
    <glyph glyph-name="threeperemspace" unicode="&#x2004;" horiz-adv-x="333" 
 />
    <glyph glyph-name="fourperemspace" unicode="&#x2005;" horiz-adv-x="250" 
 />
    <glyph glyph-name="thinspace" unicode="&#x2009;" horiz-adv-x="128" 
 />
    <glyph glyph-name="hairspace" unicode="&#x200a;" horiz-adv-x="71" 
 />
    <glyph glyph-name="endash" unicode="&#x2013;" horiz-adv-x="503" 
d="M36 235v155h431v-155h-431z" />
    <glyph glyph-name="emdash" unicode="&#x2014;" horiz-adv-x="828" 
d="M36 235v155h756v-155h-756z" />
    <glyph glyph-name="quoteleft" unicode="&#x2018;" horiz-adv-x="264" 
d="M36 359v151q0 182 191 195l15 -68q-50 -7 -74.5 -31.5t-22.5 -61.5h76v-185h-185z" />
    <glyph glyph-name="quoteright" unicode="&#x2019;" horiz-adv-x="264" 
d="M36 355l-14 68q49 7 73.5 31t23.5 62h-77v184h185v-151q0 -183 -191 -194z" />
    <glyph glyph-name="quotesinglbase" unicode="&#x201a;" horiz-adv-x="267" 
d="M34 -161l-14 68q50 7 75 31.5t23 61.5h-76v184h185v-150q0 -97 -49.5 -143t-143.5 -52z" />
    <glyph glyph-name="quotedblleft" unicode="&#x201c;" horiz-adv-x="504" 
d="M280 359v151q0 182 188 195l15 -68q-50 -7 -73.5 -31.5t-21.5 -61.5h74v-185h-182zM36 359v151q0 182 188 195l15 -68q-50 -7 -73.5 -31.5t-21.5 -61.5h74v-185h-182z" />
    <glyph glyph-name="quotedblright" unicode="&#x201d;" horiz-adv-x="504" 
d="M280 355l-14 68q49 7 72.5 31t22.5 62h-75v184h182v-151q0 -183 -188 -194zM36 355l-14 68q49 7 73 31t22 62h-75v184h182v-151q0 -183 -188 -194z" />
    <glyph glyph-name="quotedblbase" unicode="&#x201e;" horiz-adv-x="509" 
d="M279 -161l-14 68q50 7 74.5 31.5t22.5 61.5h-75v184h182v-150q0 -97 -48.5 -143t-141.5 -52zM34 -161l-14 68q50 7 74 31.5t23 61.5h-75v184h182v-150q0 -97 -48.5 -143t-141.5 -52z" />
    <glyph glyph-name="dagger" unicode="&#x2020;" horiz-adv-x="363" 
d="M133 228l11 267l-110 -11v101l109 -12l-16 127h109l-15 -127l109 12v-101l-110 11l11 -267h-98z" />
    <glyph glyph-name="daggerdbl" unicode="&#x2021;" horiz-adv-x="381" 
d="M136 0l16 126l-109 -11v101l111 -11l-15 145l15 145l-111 -11v101l109 -12l-16 127h109l-15 -127l108 12v-101l-110 11l14 -145l-14 -145l110 11v-101l-108 11l15 -126h-109z" />
    <glyph glyph-name="bullet" unicode="&#x2022;" horiz-adv-x="458" 
d="M229 183q-65 0 -109.5 47t-44.5 119v7q0 72 44.5 119t109.5 47t109.5 -47t44.5 -119v-7q0 -72 -44.5 -119t-109.5 -47z" />
    <glyph glyph-name="ellipsis" unicode="&#x2026;" horiz-adv-x="791" 
d="M568 0v182h183v-182h-183zM304 0v182h183v-182h-183zM40 0v182h183v-182h-183z" />
    <glyph glyph-name="perthousand" unicode="&#x2030;" horiz-adv-x="1151" 
d="M191 430q22 0 35 22.5t13 62.5v6q0 40 -13 62.5t-36 22.5q-22 0 -35 -22.5t-13 -61.5v-7q0 -39 13.5 -62t35.5 -23zM190 328q-71 0 -115.5 52.5t-44.5 133.5v8q0 82 44.5 134.5t116.5 52.5t116 -52.5t44 -134.5v-7q0 -82 -44.5 -134.5t-116.5 -52.5zM695 700l-257 -374
l-217 -326h-118l256 371l218 329h118zM608 94q22 0 35 22.5t13 61.5v7q0 39 -13.5 62t-35.5 23q-23 0 -36 -22.5t-13 -62.5v-6q0 -39 13.5 -62t36.5 -23zM607 -9q-71 0 -115.5 52.5t-44.5 134.5v7q0 82 44.5 134.5t116.5 52.5q71 0 115.5 -52t44.5 -134v-8q0 -82 -45 -134.5
t-116 -52.5zM961 94q22 0 35 22.5t13 61.5v7q0 39 -13.5 62t-35.5 23q-48 0 -48 -85v-6q0 -39 13.5 -62t35.5 -23zM960 -9q-71 0 -115.5 52.5t-44.5 134.5v7q0 82 44.5 134.5t116.5 52.5q71 0 115.5 -52t44.5 -134v-8q0 -82 -45 -134.5t-116 -52.5z" />
    <glyph glyph-name="guilsinglleft" unicode="&#x2039;" horiz-adv-x="324" 
d="M184 36l-158 213v39l158 214l114 -56l-108 -177l109 -176z" />
    <glyph glyph-name="guilsinglright" unicode="&#x203a;" horiz-adv-x="324" 
d="M141 36l-115 56l109 176l-109 177l115 56l158 -213v-39z" />
    <glyph glyph-name="Euro" unicode="&#x20ac;" horiz-adv-x="594" 
d="M580 623l-101 -119q-44 50 -97 50q-72 0 -100 -75h142v-101h-160v-19v-17v-16h160v-102h-144q26 -78 104 -78q54 0 100 53l97 -116q-85 -96 -207 -96q-106 0 -178 62.5t-95 172.5h-71v104h60v13v20v19h-60v104h74q24 106 96.5 168.5t177.5 62.5q120 0 202 -90z" />
    <glyph glyph-name="published" unicode="&#x2117;" horiz-adv-x="732" 
d="M366 -13q-139 0 -231.5 102.5t-92.5 254.5v11q0 152 93 255t232 103q138 0 230.5 -102.5t92.5 -254.5v-11q0 -152 -93 -255t-231 -103zM366 26q123 0 203 91t80 228v12q0 136 -79.5 226.5t-202.5 90.5q-124 0 -204 -91t-80 -228v-12q0 -136 80 -226.5t203 -90.5zM240 160
v391h139q70 0 111.5 -35.5t41.5 -100.5v-3q0 -66 -43.5 -101.5t-110.5 -36.5h-37v-114h-101zM341 356h34q26 0 41 14.5t15 39.5v1q0 27 -15 41t-41 14h-34v-110z" />
    <glyph glyph-name="servicemark" unicode="&#x2120;" horiz-adv-x="622" 
d="M298 390v310h85l62 -112l62 112h85v-310h-81v176l-65 -115h-3l-66 115v-176h-79zM142 385q-75 0 -130 45l38 59q49 -36 93 -36q34 0 34 23q0 10 -10 17t-37 16q-53 17 -79 37.5t-26 59.5q0 44 31 71.5t84 27.5q66 0 114 -37l-37 -61q-43 29 -78 29q-32 0 -32 -22
q0 -10 9.5 -16.5t37.5 -15.5q54 -18 79.5 -39.5t25.5 -59.5q0 -45 -32.5 -71.5t-84.5 -26.5z" />
    <glyph glyph-name="trademark" unicode="&#x2122;" horiz-adv-x="616" 
d="M291 390v310h85l62 -112l63 112h84v-310h-80v176l-66 -115h-3l-65 115v-176h-80zM92 390v236h-77v74h235v-74h-76v-236h-82z" />
    <glyph glyph-name="minus" unicode="&#x2212;" horiz-adv-x="568" 
d="M522 273h-476v158h476v-158z" />
    <glyph glyph-name="Q.alt" horiz-adv-x="713" 
d="M509 -84l-73 82q-36 -10 -81 -10q-141 0 -232 99t-91 255v15q0 156 92 256t233 100q142 0 233 -99t91 -256v-15q0 -153 -89 -252l150 -172v-3h-233zM357 149q64 0 102 52t38 142v12q0 90 -39 142.5t-102 52.5t-101.5 -52t-38.5 -142v-11q0 -90 39 -143t102 -53z" />
    <glyph glyph-name="a.alt" horiz-adv-x="592" 
d="M230 -11q-87 0 -145 70.5t-58 200.5v18q0 132 58 203t144 71q84 0 145 -76v65h175v-541h-175v69q-61 -80 -144 -80zM289 139q38 0 62.5 34t24.5 92v11q0 57 -24.5 91.5t-62.5 34.5q-39 0 -63.5 -34t-24.5 -92v-11q0 -58 24.5 -92t63.5 -34z" />
    <glyph glyph-name="aacute.alt" horiz-adv-x="592" 
d="M239 587l95 169l159 -52l-136 -117h-118zM230 -11q-87 0 -145 70.5t-58 200.5v18q0 132 58 203t144 71q84 0 145 -76v65h175v-541h-175v69q-61 -80 -144 -80zM289 139q38 0 62.5 34t24.5 92v11q0 57 -24.5 91.5t-62.5 34.5q-39 0 -63.5 -34t-24.5 -92v-11q0 -58 24.5 -92
t63.5 -34z" />
    <glyph glyph-name="abreve.alt" horiz-adv-x="592" 
d="M230 -11q-87 0 -145 70.5t-58 200.5v18q0 132 58 203t144 71q84 0 145 -76v65h175v-541h-175v69q-61 -80 -144 -80zM289 139q38 0 62.5 34t24.5 92v11q0 57 -24.5 91.5t-62.5 34.5q-39 0 -63.5 -34t-24.5 -92v-11q0 -58 24.5 -92t63.5 -34zM305 584q-74 0 -121 39.5
t-53 111.5h101q15 -53 73 -53t73 53h101q-6 -72 -53 -111.5t-121 -39.5z" />
    <glyph glyph-name="acircumflex.alt" horiz-adv-x="592" 
d="M123 587l113 152h138l113 -152h-111l-72 57l-72 -57h-109zM230 -11q-87 0 -145 70.5t-58 200.5v18q0 132 58 203t144 71q84 0 145 -76v65h175v-541h-175v69q-61 -80 -144 -80zM289 139q38 0 62.5 34t24.5 92v11q0 57 -24.5 91.5t-62.5 34.5q-39 0 -63.5 -34t-24.5 -92
v-11q0 -58 24.5 -92t63.5 -34z" />
    <glyph glyph-name="adieresis.alt" horiz-adv-x="592" 
d="M326 587v134h147v-134h-147zM137 587v134h147v-134h-147zM230 -11q-87 0 -145 70.5t-58 200.5v18q0 132 58 203t144 71q84 0 145 -76v65h175v-541h-175v69q-61 -80 -144 -80zM289 139q38 0 62.5 34t24.5 92v11q0 57 -24.5 91.5t-62.5 34.5q-39 0 -63.5 -34t-24.5 -92v-11
q0 -58 24.5 -92t63.5 -34z" />
    <glyph glyph-name="agrave.alt" horiz-adv-x="592" 
d="M230 -11q-87 0 -145 70.5t-58 200.5v18q0 132 58 203t144 71q84 0 145 -76v65h175v-541h-175v69q-61 -80 -144 -80zM289 139q38 0 62.5 34t24.5 92v11q0 57 -24.5 91.5t-62.5 34.5q-39 0 -63.5 -34t-24.5 -92v-11q0 -58 24.5 -92t63.5 -34zM253 587l-136 117l159 52
l95 -169h-118z" />
    <glyph glyph-name="amacron.alt" horiz-adv-x="592" 
d="M230 -11q-87 0 -145 70.5t-58 200.5v18q0 132 58 203t144 71q84 0 145 -76v65h175v-541h-175v69q-61 -80 -144 -80zM289 139q38 0 62.5 34t24.5 92v11q0 57 -24.5 91.5t-62.5 34.5q-39 0 -63.5 -34t-24.5 -92v-11q0 -58 24.5 -92t63.5 -34zM137 593v106h336v-106h-336z
" />
    <glyph glyph-name="aogonek.alt" horiz-adv-x="592" 
d="M557 -77v-80q-27 -4 -58 -4q-65 0 -102 21.5t-37 58.5q0 41 40 81h-26v69q-61 -80 -144 -80q-87 0 -145 70.5t-58 200.5v18q0 132 58 203t144 71q84 0 145 -76v65h175v-541h-36q-20 -24 -20 -45q0 -33 64 -32zM289 139q38 0 62.5 34t24.5 92v11q0 57 -24.5 91.5
t-62.5 34.5q-39 0 -63.5 -34t-24.5 -92v-11q0 -58 24.5 -92t63.5 -34z" />
    <glyph glyph-name="aring.alt" horiz-adv-x="592" 
d="M305 586q-50 0 -85 34t-35 83t35 82.5t85 33.5t85 -33.5t35 -82.5t-35 -83t-85 -34zM305 641q25 0 42.5 18t17.5 44t-17.5 44t-42.5 18t-42.5 -18t-17.5 -44t17.5 -44t42.5 -18zM230 -11q-87 0 -145 70.5t-58 200.5v18q0 132 58 203t144 71q84 0 145 -76v65h175v-541
h-175v69q-61 -80 -144 -80zM289 139q38 0 62.5 34t24.5 92v11q0 57 -24.5 91.5t-62.5 34.5q-39 0 -63.5 -34t-24.5 -92v-11q0 -58 24.5 -92t63.5 -34z" />
    <glyph glyph-name="aring.alt2" horiz-adv-x="529" 
d="M179 -11q-70 0 -114.5 44t-44.5 121v6q0 84 50 127.5t135 43.5q63 0 112 -21v13q0 84 -94 84q-56 0 -127 -30l-41 130q63 28 115 35q-23 31 -23 69q0 49 35 83t85 34t85 -34t35 -83q0 -45 -29 -77q47 -15 77 -45q56 -56 56 -164v-325h-175v55q-53 -66 -137 -66zM243 105
q33 -1 54.5 20.5t21.5 57.5v40q-26 13 -61 13q-33 0 -52 -18t-19 -49v-4q0 -28 15.5 -44t40.5 -16zM267 549q25 0 42.5 18t17.5 44t-17.5 44.5t-42.5 18.5t-42.5 -18.5t-17.5 -44.5t17.5 -44t42.5 -18z" />
    <glyph glyph-name="aringacute.alt" horiz-adv-x="592" 
d="M239 848l100 143l156 -50l-136 -93h-120zM305 586q-50 0 -85 34t-35 83t35 82.5t85 33.5t85 -33.5t35 -82.5t-35 -83t-85 -34zM305 641q25 0 42.5 18t17.5 44t-17.5 44t-42.5 18t-42.5 -18t-17.5 -44t17.5 -44t42.5 -18zM230 -11q-87 0 -145 70.5t-58 200.5v18
q0 132 58 203t144 71q84 0 145 -76v65h175v-541h-175v69q-61 -80 -144 -80zM289 139q38 0 62.5 34t24.5 92v11q0 57 -24.5 91.5t-62.5 34.5q-39 0 -63.5 -34t-24.5 -92v-11q0 -58 24.5 -92t63.5 -34z" />
    <glyph glyph-name="aringacute.alt2" horiz-adv-x="529" 
d="M200 757l100 143l156 -49l-136 -94h-120zM179 -11q-70 0 -114.5 44t-44.5 121v6q0 84 50 127.5t135 43.5q63 0 112 -21v13q0 84 -94 84q-56 0 -127 -30l-41 130q63 28 115 35q-23 31 -23 69q0 49 35 83t85 34t85 -34t35 -83q0 -45 -29 -77q47 -15 77 -45q56 -56 56 -164
v-325h-175v55q-53 -66 -137 -66zM243 105q33 -1 54.5 20.5t21.5 57.5v40q-26 13 -61 13q-33 0 -52 -18t-19 -49v-4q0 -28 15.5 -44t40.5 -16zM267 549q25 0 42.5 18t17.5 44t-17.5 44.5t-42.5 18.5t-42.5 -18.5t-17.5 -44.5t17.5 -44t42.5 -18z" />
    <glyph glyph-name="atilde.alt" horiz-adv-x="592" 
d="M230 -11q-87 0 -145 70.5t-58 200.5v18q0 132 58 203t144 71q84 0 145 -76v65h175v-541h-175v69q-61 -80 -144 -80zM289 139q38 0 62.5 34t24.5 92v11q0 57 -24.5 91.5t-62.5 34.5q-39 0 -63.5 -34t-24.5 -92v-11q0 -58 24.5 -92t63.5 -34zM389 586q-30 0 -84 20
q-44 17 -58 17q-18 0 -26.5 -9.5t-17.5 -33.5l-84 21q13 71 38.5 104.5t69.5 33.5q30 0 84 -20q44 -17 58 -17q17 0 26 9.5t18 33.5l84 -21q-13 -71 -38.5 -104.5t-69.5 -33.5z" />
    <glyph glyph-name="three.alt" horiz-adv-x="540" 
d="M265 -13q-151 0 -254 97l96 125q69 -64 147 -64q39 0 63 19.5t24 49.5v2q0 68 -112 68h-58v141h57q52 0 77 18.5t25 49.5v1q0 28 -22.5 45t-58.5 17q-60 0 -126 -62l-94 117q99 102 240 102q105 0 170 -51t65 -133v-2q0 -115 -104 -164q117 -44 117 -162v-2
q0 -93 -68.5 -152.5t-183.5 -59.5z" />
    <glyph glyph-name="registered.alt" horiz-adv-x="732" 
d="M366 -13q-139 0 -231.5 102.5t-92.5 254.5v11q0 152 93 255t232 103q138 0 230.5 -102.5t92.5 -254.5v-11q0 -152 -93 -255t-231 -103zM366 26q123 0 203 91t80 228v12q0 136 -79.5 226.5t-202.5 90.5q-124 0 -204 -91t-80 -228v-12q0 -136 80 -226.5t203 -90.5zM224 163
v391h152q79 0 119 -40q34 -34 34 -91v-3q0 -80 -70 -114l80 -143h-113l-66 122h-35v-122h-101zM325 364h49q25 0 39 13.5t14 37.5v2q0 50 -54 50h-48v-103z" />
    <glyph glyph-name="NUL" horiz-adv-x="0" 
 />
    <glyph glyph-name="hfjslug" horiz-adv-x="694" 
d="M644 -200h-208l-8 14h-163l-8 -14h-207v303q14 0 23 9.5t9 22.5t-9.5 22.5t-22.5 9.5v554h100l30 79h334l29 -79h101v-921zM400 563v-172h15v78h38v14h-38v66h43v14h-58zM184 563v-172h15v79h47v-79h15v172h-15v-79h-47v79h-15zM460 394q10 -4 21 -4q31 0 31 36v137h-16
v-137q0 -22 -16 -22q-8 0 -20 5v-15zM371 465l-13 3q-4 -18 -8 -30h-1l-16 31q23 21 23 42q0 31 -27 31q-12 0 -20 -9t-8 -22t14 -39q-23 -18 -23 -47q0 -16 8 -26.5t21 -10.5q19 0 29 24h1l12 -24l12 6l-17 32q6 14 13 39zM523 323v-46h8v12l8 8l15 -20h10l-20 26l18 20
h-10l-20 -24h-1v24h-8zM488 292l10 -15h9l-12 17q10 4 10 14q0 15 -17 15h-20v-46h8v15h12zM426 276q10 0 17 7t7 17q0 9 -7 16.5t-17 7.5t-17 -7.5t-7 -16.5q0 -10 7 -17t17 -7zM370 301l-13 22h-9l18 -29v-17h8v17l18 29h-9zM193 323v-46h34v7h-26v13h23v7h-23v12h26v7
h-34zM132 323v-46h8v32l25 -32h7v46h-8v-32l-25 32h-7zM241 323l14 -47h8l11 34h1l11 -34h8l14 47h-8l-10 -35h-1l-11 35h-7l-11 -35h-1l-10 35h-8zM327 479q-12 22 -12 32q0 19 14 19q13 0 13 -19q0 -15 -15 -32zM342 423q-8 -21 -20 -21q-16 0 -16 25q0 19 16 35zM487 299
h-11v17h11q10 0 10 -8q0 -9 -10 -9zM426 283q-16 0 -16 17q0 6 4.5 11.5t11.5 5.5t11.5 -5.5t4.5 -11.5q0 -17 -16 -17z" />
    <glyph glyph-name="i.dot" horiz-adv-x="269" 
d="M44 587v137h181v-137h-181zM47 0v541h175v-541h-175z" />
    <glyph glyph-name="caron.alt" 
d="M188 578l11 194h116v-3l-57 -191h-70z" />
    <glyph glyph-name="acute.cap" 
d="M133 741l98 149l166 -51l-134 -98h-130z" />
    <glyph glyph-name="hungarumlaut.cap" 
d="M229 741l56 89l-116 -89h-117l94 149l146 -48l31 48l152 -50l-129 -99h-117z" />
    <glyph glyph-name="grave.cap" 
d="M366 741h-129l-135 98l167 51z" />
    <glyph glyph-name="circumflex.cap" 
d="M66 741l108 138h152l108 -138h-118l-67 50l-67 -50h-116z" />
    <glyph glyph-name="caron.cap" 
d="M434 879l-108 -138h-152l-108 138h118l67 -50l67 50h116z" />
    <glyph glyph-name="breve.cap" 
d="M250 739q-75 0 -121 35t-53 103h104q16 -42 70 -42t70 42h103q-7 -68 -52.5 -103t-120.5 -35z" />
    <glyph glyph-name="tilde.cap" 
d="M334 741q-29 0 -89 20q-46 17 -60 17q-16 0 -25.5 -10t-18.5 -33l-85 21q13 71 39 104.5t71 33.5q28 0 90 -20q42 -16 58 -16q17 0 26.5 9.5t18.5 33.5l85 -22q-13 -71 -39 -104.5t-71 -33.5z" />
    <glyph glyph-name="macron.cap" 
d="M72 747v110h356v-110h-356z" />
    <glyph glyph-name="dieresis.cap" 
d="M275 742v129h149v-129h-149zM76 742v129h149v-129h-149z" />
    <glyph glyph-name="dotaccent.cap" 
d="M173 742v129h154v-129h-154z" />
    <glyph glyph-name="ring.cap" 
d="M250 741q-54 0 -90.5 33t-36.5 82t36.5 81.5t90.5 32.5t90.5 -32.5t36.5 -81.5t-36.5 -82t-90.5 -33zM250 798q28 0 45.5 16.5t17.5 41.5t-17.5 41.5t-45.5 16.5t-45.5 -16.5t-17.5 -41.5t17.5 -41.5t45.5 -16.5z" />
    </font>
</defs>
</svg>
